<svg width="126" height="32" viewBox="0 0 126 32" fill="none" xmlns="http://www.w3.org/2000/svg">
  <rect width="126" height="32" rx="8" fill="#2D7CF6"/>
  <path d="M19.6 20.5c2.6 0 4.2-1.4 4.2-3.5 0-1.7-1-2.7-2.8-3.1l2.4-2.8h-2.9l-2.5 3V8.6h-2.5v11.9h2.5v-3.1l.9-1 2.3 4.1h2.8L21 15.8c1 .3 1.4.8 1.4 1.6 0 .9-.8 1.5-2.1 1.5-1.3 0-2.4-.5-3.3-1.3l-1.3 1.7c1.1 1 2.5 1.4 3.9 1.4z" fill="white"/>
  <path d="M30.9 20.5c3 0 5.1-2.1 5.1-5.1 0-3.1-2.1-5.2-5.1-5.2-3 0-5.1 2.1-5.1 5.2 0 3 2.1 5.1 5.1 5.1zm0-2.2c-1.5 0-2.5-1.1-2.5-2.9 0-1.8 1-2.9 2.5-2.9 1.5 0 2.5 1.1 2.5 2.9 0 1.8-1 2.9-2.5 2.9z" fill="white"/>
  <path d="M42.3 20.5c2.7 0 4.5-1.8 4.5-4.6V10.5h-2.5v5.2c0 1.6-.8 2.5-2 2.5-1.2 0-1.9-.8-1.9-2.5v-5.2h-2.5v5.4c0 2.8 1.7 4.6 4.4 4.6z" fill="white"/>
  <path d="M53.6 20.5c2.3 0 3.8-1.3 3.8-3.2 0-1.6-1-2.5-3.2-3-1.4-.3-1.9-.6-1.9-1.1 0-.5.5-.9 1.4-.9 1 0 2 .3 2.9.9l1-1.8c-1-.7-2.3-1.1-3.8-1.1-2.2 0-3.7 1.3-3.7 3.1 0 1.8 1.2 2.6 3.3 3.1 1.3.3 1.8.6 1.8 1.1 0 .6-.6 1-1.6 1-1.2 0-2.4-.4-3.4-1.2l-1.1 1.7c1.2.9 2.8 1.4 4.5 1.4z" fill="white"/>
  <path d="M64 20.5c2.6 0 4.4-1.2 5.2-3.2l-2.2-.8c-.5 1.1-1.5 1.8-2.9 1.8-1.8 0-3-1.2-3-3s1.2-3 3-3c1.3 0 2.3.7 2.8 1.8l2.3-.8c-.8-2.1-2.7-3.3-5.2-3.3-3.2 0-5.6 2.2-5.6 5.3S60.8 20.5 64 20.5z" fill="white"/>
  <path d="M74.7 20.5c3 0 5.1-2.1 5.1-5.1 0-3.1-2.1-5.2-5.1-5.2-3 0-5.1 2.1-5.1 5.2 0 3 2.1 5.1 5.1 5.1zm0-2.2c-1.5 0-2.5-1.1-2.5-2.9 0-1.8 1-2.9 2.5-2.9 1.5 0 2.5 1.1 2.5 2.9 0 1.8-1 2.9-2.5 2.9z" fill="white"/>
  <path d="M86.2 20.5c2.7 0 4.5-1.8 4.5-4.6V10.5h-2.5v5.2c0 1.6-.8 2.5-2 2.5-1.2 0-1.9-.8-1.9-2.5v-5.2h-2.5v5.4c0 2.8 1.7 4.6 4.4 4.6z" fill="white"/>
  <path d="M96.1 20.3V8.6h-2.5v11.7h2.5z" fill="white"/>
  <path d="M103.4 20.5c2.6 0 4.4-1.2 5.2-3.2l-2.2-.8c-.5 1.1-1.5 1.8-2.9 1.8-1.8 0-3-1.2-3-3s1.2-3 3-3c1.3 0 2.3.7 2.8 1.8l2.3-.8c-.8-2.1-2.7-3.3-5.2-3.3-3.2 0-5.6 2.2-5.6 5.3s2.4 5.2 5.6 5.2z" fill="white"/>
</svg>
