<?xml version="1.0" encoding="UTF-8"?>
<svg version="1.1" viewBox="0 0 1602 1286" width="1602" height="1286" xmlns="http://www.w3.org/2000/svg">
<path transform="translate(0)" d="m0 0h1602v1286h-1602z" fill="#000203"/>
<path transform="translate(247,439)" d="m0 0 7 6 8 8 18 22 14 19 22 33 15 25 12 22 12 23 15 31 16 38 13 36 8 25 10 37 7 33 5 31 3 27 1 16v60l-3 34-5 32-7 30-8 27-10 26-12 26-14 24-12 18-13 17-12 14-15 16-8 7h-157l4-3 20-9 20-10 20-12 12-8 15-11 11-9 14-12 16-16 9-11 10-12 12-17 9-15 11-20 11-25 11-33 6-25 5-26 4-31 2-36-1-41-4-41-5-32-7-34-9-36-12-38-11-31-14-34-13-29-16-33-10-20-12-21-15-26-3-4z" fill="#234566"/>
<path transform="translate(684,112)" d="m0 0 2 1 5 23 7 19 10 18 9 11 12 12 14 10 21 11 29 11 41 13 41 12 20 8 23 12 14 10 13 12 10 12 8 13 7 15 5 17 2 12 1 11v13l-2 18-4 17-7 19-10 20-13 21-11 15-17 25-14 20-8 11h-44l4-10 15-29 13-23 14-24 10-18 8-17 7-21 3-17v-23l-3-15-5-14-9-14-9-10-10-8-16-10-21-10-40-14-27-10-23-10-16-9-14-10-10-9-9-11-8-11-8-15-7-21-3-15-1-10v-30z" fill="#234566"/>
<path transform="translate(431,88)" d="m0 0 2 1-1 24-5 25-5 15-8 16-7 12-11 13-11 11-16 12-18 11-25 12-37 13-47 15-24 11-11 7-14 11-9 9-10 13-9 16-6 15-5 21-2 13-1 12v23l2 25 6 38 9 45 13 55 1 6-3-3-18-34-15-30-11-27-10-28-8-29-5-26-2-17v-36l3-21 6-21 7-16 8-14 10-13 10-11 11-9 18-12 25-12 24-8 28-7 30-8 31-11 21-9 16-8 16-10 16-13 12-12 11-15 11-21 6-18z" fill="#234566"/>
<path transform="translate(788,767)" d="m0 0h1l3 33 4 24 7 30 12 36 11 26 12 25 12 24 10 19 12 25 9 25 6 23 4 25 2 28-1 26-3 22-6 24-8 22-8 16-1-4 2-22v-46l-3-27-5-25-7-24-8-21-11-24-17-32-12-25-10-25-7-21-6-24-3-16-2-19v-45l3-23 6-25z" fill="#234566"/>
<path transform="translate(1147,738)" d="m0 0h46l10 3 8 7 3 6 1 10-3 10-5 6 8 7 3 7v14l-4 9-5 4-11 4h-51z" fill="#FEFEFE"/>
<path transform="translate(823,376)" d="m0 0 2 1-10 12-12 17-9 15-12 23-10 24-7 23-4 20-2 18v25h-43l2-21 4-20 9-27 12-25 12-19 11-14 18-20 12-11 14-11z" fill="#234566"/>
<path transform="translate(600,985)" d="m0 0 5 3 12 10 15 8 6 3 2 4-1 6-12 9-6 8-5 12-12 10-10 8-17 16-10 13-9 16-9 21-7 23-4 17-2 2v-32l3-21 4-15 8-18 11-20 18-27 5-12 1-3v-9l-3-6-5-8v-6l4-4 8 1 5-5z" fill="#FEFEFE"/>
<path transform="translate(548,141)" d="m0 0h8l5 3 5 10 6 4 5 3 2 3-2 11-3 3-14 1-4 5-3 10v7l12 6 2 3v7l-3 5-3 1h-7l-5 5-2 5-2 8h-11l-11-4-6-4-3-4-2-16-4-5-6-2-7-1-2-4 1-9 4-4h8l9 3h14l5-2-1-3-4-3 1-6 2-6-1-8-5-3-14-2-2-2v-8l4-6h9l9 3 9-1z" fill="#FEFEFE"/>
<path transform="translate(1201,611)" d="m0 0h44l10 4 8 8 4 11v15l-4 10-7 7-5 2 6 11 11 17v2h-13l-10-15-7-11h-23l-1 26h-13z" fill="#FEFEFE"/>
<path transform="translate(847,738)" d="m0 0h40l13 4 8 7 4 8 1 4v14l-4 10-7 8-6 2 12 19 6 9v2h-13l-8-11-9-14v-2h-24v27h-13z" fill="#FEFEFE"/>
<path transform="translate(648,679)" d="m0 0 5 1 3 7 3 23 5 12 3 4-2 4-7 6-12 6-11 3-8 1h-9l-8-2-2-3-1-7-1-3-6-2-7 1-9 6-9 8-2 1h-6l-6-5-2-5v-8l4-8 7-6 15-1 1-1 1-17 1-2 7 1 11 4h15l13-5 10-9z" fill="#FEFEFE"/>
<path transform="translate(668,744)" d="m0 0 4 1 3 4 1 27 6 17v4l-20 8-15 3h-10l-13-3-2-2-1-9-2-4-2-1h-8l-6 4-10 9-5 2-6-1-5-5-1-3v-11l3-6 4-4 3-1h16l2-4 2-16 3-1 14 6 4 1h14l13-4 9-6z" fill="#FEFEFE"/>
<path transform="translate(1371,610)" d="m0 0h36l11 2 10 6 6 9 2 6v16l-4 9-6 7-8 4-8 2h-27v27h-13v-87z" fill="#FEFEFE"/>
<path transform="translate(626,618)" d="m0 0 5 3 3 7 3 19 8 17-2 4-10 7-12 6-10 3-14 1-7-2-3-4-4-10-4-3h-8l-6 3-9 7h-9l-5-6-1-11 3-6 3-3h16l3-19h6l14 5h8l11-3 8-4 10-9z" fill="#FEFEFE"/>
<path transform="translate(678,813)" d="m0 0 4 2 1 3v31l3 14-1 5-6 3-13 2h-14l-17-3-7-3-2-13-2-3-8-1-9 4-7 5-8 1-5-3-3-5v-10l5-8 4-2h11l11 1 2-18 4-1 12 7 9 3h15l11-4z" fill="#FEFEFE"/>
<path transform="translate(606,559)" d="m0 0 5 3 2 9 1 22 3 9 2 5-11 8-13 6-13 3h-11l-5-3-8-12-6-3h-9l-12 4-7-1-5-6-1-2v-11l5-5h7l10 1 1-2 1-13 5-1 14 7 4 1h9l11-4 13-9z" fill="#FEFEFE"/>
<path transform="translate(620,876)" d="m0 0 6 1 13 8 9 3 14 1 20-5 2 1v11l-7 23-1 19-1 1h-18l-15-4-16-8-2-2v-8l-2-4-9-3-9 2-7 3h-6l-5-4-2-5v-8l4-6 8-3 14 2 6 1z" fill="#FEFEFE"/>
<path transform="translate(584,505)" d="m0 0 4 1 3 5 1 11-1 9v11l3 5-1 5-8 6-13 5-4 1h-18l-8-4-7-10-7-4-10-1-10 2-7-1-4-5-1-3v-8l4-5 2-1h8l9 2h2l1-14 5-1 14 8 3 1h14l12-5 13-9z" fill="#FEFEFE"/>
<path transform="translate(509,453)" d="m0 0 5 2 11 7 6 2 11 1 15-4 11-7 7 1 3 3 1 2v11l-7 9-1 3v8l2 7-8 5-9 3-7 1h-11l-10-2-6-4-8-11-7-4-23-1-3-5v-13l5-5 7 1 7 3h5l3-12z" fill="#FEFEFE"/>
<path transform="translate(1512,610)" d="m0 0h12l5 10 20 49 11 26v3h-13l-8-18v-3l-42 1-8 20h-13l1-5 15-37 18-44z" fill="#FEFEFE"/>
<path transform="translate(1311,610)" d="m0 0h12l4 8 18 44 14 34v2h-13l-5-11-3-10h-42l-3 9-5 12h-14l10-25 18-44 7-17z" fill="#FEFEFE"/>
<path transform="translate(1331,738)" d="m0 0h13l11 25 17 41 8 19v2h-13l-6-13-2-5v-3h-43l-3 10-5 11h-13l1-5 18-43 15-36z" fill="#FEFEFE"/>
<path transform="translate(498,394)" d="m0 0 4 1 7 7 12 6 4 1h13l12-5 4-2h7l5 4 1 3v7l-4 6-5 6-1 2v9l1 6-4 3-9 3-5 1h-12l-14-4-6-4-7-11-7-5-12-2h-7l-4-7v-12l4-4h10l5 2h5z" fill="#FEFEFE"/>
<path transform="translate(1392,738)" d="m0 0h11l9 11 14 19 14 18 10 13 1-61h13v87h-11l-12-15-13-17-10-13-12-16-1 61h-13z" fill="#FEFEFE"/>
<path transform="translate(994,621)" d="m0 0h7l10 3 9 7 5 8 2 6 1 12-2 10-5 10-8 7-8 3-9 1-10-2-7-4-7-7-4-9-1-5v-14l4-11 7-8 8-5z" fill="#010406"/>
<path transform="translate(963,749)" d="m0 0h13l10 4 8 7 5 10 1 5v13l-3 10-6 8-6 5-7 3-11 1-9-2-9-6-6-8-3-7-1-5v-12l4-11 6-8 10-6z" fill="#010406"/>
<path transform="translate(615,933)" d="m0 0 4 1 12 10 12 6 12 2 13 1 1 1v7l-12 23-5 13-1 1h-7l-13-5-12-7-9-8 1-8-2-4-4-2h-21l-5-4-2-10 3-7 5-3 8 1 15 3h3l3-10z" fill="#FEFEFE"/>
<path transform="translate(996,609)" d="m0 0 16 2 11 6 8 7 6 10 3 9 1 14-2 12-4 9-6 9-9 7-9 4-5 1h-18l-12-4-8-6-7-8-5-10-2-8v-18l4-12 6-9 7-7 12-6zm-2 12-10 3-6 4-7 8-4 11v14l3 10 4 6 9 8 6 2 10 1 12-3 8-6 6-9 2-6 1-12-2-10-4-8-5-6-8-5-8-2z" fill="#FEFEFE"/>
<path transform="translate(961,737)" d="m0 0h17l12 4 11 8 7 10 4 11 1 5v14l-2 9-5 10-9 10-12 6-8 2h-16l-10-3-10-6-8-9-5-10-2-9v-15l3-11 6-11 7-7 14-7zm2 12-10 4-7 6-6 12-1 4v12l3 10 6 9 8 6 5 2 11 1 9-2 8-5 7-8 3-7 1-5v-13l-3-10-6-8-5-4-10-4z" fill="#FEFEFE"/>
<path transform="translate(496,338)" d="m0 0 4 2 4 5 10 7 9 3h14l12-4h9l3 4v12l-3 3-8 4-3 4-1 3v12l-9 3h-16l-12-4-8-6-7-12-5-4-5-2-14-1-2-4v-11l4-6 5-1 13 5h2l2-5z" fill="#FEFEFE"/>
<path transform="translate(500,286)" d="m0 0 7 6 9 7 9 4h15l9-3h5l5 6 1 9-2 5-10 2-5 5-2 10-1 4-5 2h-10l-14-4-9-6-8-16-8-5-11-1-4-2-2-8 3-8 4-3 7 1 9 4h4l2-6z" fill="#FEFEFE"/>
<path transform="translate(1125,611)" d="m0 0h58v9l-1 2h-44v26h40v11h-40v28h47l-1 11h-59z" fill="#FEFEFE"/>
<path transform="translate(509,236)" d="m0 0 6 3 8 7 10 5h24l5 5-1 10-3 4-10 2-5 5-2 12-3 2h-13l-14-5-6-5-2-3-1-10-4-6-7-3-10-2-2-6 2-10 3-3h8l10 5 4-1z" fill="#FEFEFE"/>
<path transform="translate(878,609)" d="m0 0 13 1 11 4 4 3-3 10h-4l-8-4-4-1h-13l-8 3-4 6v7l4 5 30 10 8 5 4 5 2 6v10l-4 10-7 6-11 4h-20l-13-4-8-6 1-5 2-6 4 2 9 5 9 2h12l9-3 3-5v-8l-5-5-10-4-20-6-8-6-4-6-1-4v-9l3-9 7-7 8-4z" fill="#FEFEFE"/>
<path transform="translate(1516,737)" d="m0 0h19l11 4 6 4 4 4-1 4-5 5-4-1-10-6-3-1h-15l-10 4-7 6-5 10-1 4v14l4 11 6 8 6 4 12 3 11-1 10-5 4-4 4 2 5 5-2 4-7 6-10 4-5 1h-16l-9-2-10-5-8-8-5-8-4-13v-17l4-13 7-10 8-7 12-5z" fill="#FEFEFE"/>
<path transform="translate(1061,737)" d="m0 0h17l10 3 9 6 3 3-1 4-5 5-4-1-10-6-3-1h-15l-10 4-6 5-5 9-2 8v10l4 13 5 7 10 6 3 1h17l10-5 4-4h2l7 8-5 6-8 5-11 3h-16l-11-3-10-6-8-9-4-8-3-11v-16l4-13 7-10 8-7 12-5z" fill="#FEFEFE"/>
<path transform="translate(744,610)" d="m0 0 59 1-1 11h-45v29h40l1 1v9l-1 1-39 1-1 35h-13z" fill="#FEFEFE"/>
<path transform="translate(1045,611)" d="m0 0h68v11h-27v76h-13v-76h-28z" fill="#FEFEFE"/>
<path transform="translate(1236,738)" d="m0 0h12v76h43v11h-55l-1-8v-78z" fill="#FEFEFE"/>
<path transform="translate(559,94)" d="m0 0h7l6 3 3 4 2 12 7 4 2 4v7l-2 3-13-1-4 2-4 8-5-1-13-5-1-1-1-10-4-4-12-4-2-4 3-8 3-2 6 1 2 1h10l3-1 2-4z" fill="#FEFEFE"/>
<path transform="translate(1214,622)" d="m0 0h26l9 4 5 8 1 9-3 9-5 5-7 3h-26z" fill="#020609"/>
<path transform="translate(1383,622)" d="m0 0h26l9 4 5 8 1 9-3 9-7 6-6 2h-25z" fill="#020609"/>
<path transform="translate(860,749)" d="m0 0h21l9 2 6 4 4 8v10l-4 8-5 4-6 2h-25z" fill="#010508"/>
<path transform="translate(1160,786)" d="m0 0h34l8 4 3 4 1 8-3 7-5 4-3 1h-35z" fill="#010407"/>
<path transform="translate(1453,610)" d="m0 0h11l1 1v87h-13v-87z" fill="#FEFEFE"/>
<path transform="translate(925,610)" d="m0 0 13 1v87h-13z" fill="#FEFEFE"/>
<path transform="translate(818,611)" d="m0 0h13v74l-1 13h-12z" fill="#FEFEFE"/>
<path transform="translate(1160,749)" d="m0 0h30l8 3 4 6v8l-3 5-4 3-3 1h-32z" fill="#02060A"/>
<path transform="translate(1337,752)" d="m0 0 2 2 11 28 3 7v4h-31l1-6 12-31z" fill="#03090E"/>
<path transform="translate(1517,626)" d="m0 0 3 3 13 33v4h-30l-1-2 14-36z" fill="#04090E"/>
<path transform="translate(1316,626)" d="m0 0 3 3 13 33v4h-31l3-10 11-28z" fill="#03090D"/>
</svg>
