<svg version="1.1" id="frb-icon" xmlns="http://www.w3.org/2000/svg" xmlns:xlink="http://www.w3.org/1999/xlink"
  width="180" height="180" viewBox="0 0 1050 1286" preserveAspectRatio="xMidYMid meet" xml:space="preserve" role="img" aria-label="Fisioterapia Roc Blanc">
<defs>
  <style type="text/css"><![CDATA[
    :root {
      --logo-ink: #0f172a;
      --logo-brand: #2563eb;
      --logo-highlight: #f1f5f9;
    }
    @media (prefers-color-scheme: dark) {
      :root {
        --logo-ink: #e2e8f0;
        --logo-brand: #60a5fa;
        --logo-highlight: #334155;
      }
    }
  ]]></style>
</defs>
<path fill="var(--logo-ink)" opacity="1.000000" stroke="none" 
	d="
M926.000000,1287.000000 
	C617.333374,1287.000000 309.166779,1287.000000 1.000124,1287.000000 
	C1.000083,858.333435 1.000083,429.666931 1.000041,1.000297 
	C534.999756,1.000198 1068.999512,1.000198 1602.999512,1.000099 
	C1602.999634,429.666382 1602.999634,858.332764 1602.999756,1286.999512 
	C1377.500000,1287.000000 1152.000000,1287.000000 926.000000,1287.000000 
M253.019211,448.753265 
	C266.864746,474.169647 281.106659,499.380798 294.411865,525.076965 
	C302.822449,541.320251 310.099243,558.172119 317.419067,574.954041 
	C332.403992,609.309570 345.046295,644.540894 355.047699,680.663818 
	C364.768860,715.774536 372.105103,751.373169 376.289185,787.626648 
	C379.227417,813.085022 380.664093,838.551880 380.188354,864.174011 
	C379.733795,888.656860 377.321838,912.898193 373.117188,937.013245 
	C366.616730,974.295654 355.865143,1010.196960 338.359711,1043.837769 
	C320.606445,1077.954712 297.646851,1108.093506 268.895966,1133.842651 
	C240.233704,1159.512573 208.222824,1179.814453 173.190750,1195.517212 
	C168.316284,1197.702148 163.483093,1199.979126 157.694168,1202.644897 
	C159.305771,1202.989502 159.629761,1203.119507 159.953796,1203.119507 
	C210.449081,1203.125977 260.944458,1203.150757 311.439362,1203.012085 
	C313.321106,1203.006958 315.671753,1201.862061 317.003143,1200.478149 
	C327.945740,1189.103760 339.288177,1178.039673 349.394287,1165.949463 
	C375.932343,1134.201050 395.249390,1098.243774 409.021088,1059.308228 
	C423.930054,1017.157349 431.985291,973.545410 433.630768,928.999146 
	C434.580750,903.281494 433.341217,877.421448 431.889343,851.693115 
	C430.305176,823.620422 424.856781,796.034607 418.383240,768.683411 
	C408.548126,727.129211 395.181946,686.749329 378.379272,647.486023 
	C359.542236,603.468994 338.010742,560.861755 311.802490,520.747375 
	C294.801697,494.725952 277.362701,468.979767 254.838699,446.333618 
	C252.352997,443.560974 249.867310,440.788300 247.381607,438.015656 
	C246.961929,438.406433 246.542252,438.797211 246.122574,439.187988 
	C248.405136,442.139893 250.687683,445.091797 253.019211,448.753265 
M893.956116,261.488373 
	C870.688599,254.012405 847.428772,246.512497 824.151550,239.067062 
	C799.761108,231.265594 775.039124,224.293198 752.320496,212.111389 
	C717.720642,193.558807 696.984375,164.626862 688.962036,126.372337 
	C688.063049,122.085091 687.258728,117.777977 686.410522,113.480072 
	C684.867676,115.217316 684.195984,117.030151 684.151611,118.858231 
	C683.771179,134.503586 683.741455,150.127197 686.959473,165.570435 
	C694.443420,201.486313 713.622009,229.280655 744.642700,248.873276 
	C763.653564,260.880524 784.640076,268.477173 805.629761,276.053589 
	C827.217224,283.845734 849.515930,289.819855 869.794373,300.963013 
	C882.842590,308.133148 895.428650,316.135620 904.801086,327.894501 
	C925.356323,353.683258 927.987305,382.978668 920.092468,413.877075 
	C914.596741,435.386322 903.810974,454.543823 892.947205,473.706055 
	C878.828857,498.608734 865.310181,523.851746 851.598145,548.983643 
	C850.711182,550.609314 850.378357,552.537292 849.721680,554.524414 
	C851.036438,554.813843 851.671997,555.074646 852.307922,555.075745 
	C864.807007,555.097717 877.308105,555.192993 889.802917,554.959412 
	C891.400696,554.929626 893.508850,553.528198 894.466553,552.134216 
	C914.624146,522.793640 935.451904,493.869568 954.466980,463.800598 
	C971.974670,436.115295 980.847900,405.599091 978.183472,372.205231 
	C975.815369,342.526947 965.098999,316.765198 944.597595,295.166260 
	C930.477417,280.290253 913.019592,270.343903 893.956116,261.488373 
M428.517822,135.891815 
	C432.213379,120.678955 433.971497,105.300232 432.721985,89.574638 
	C431.166351,91.532753 430.344238,93.626259 429.667450,95.765724 
	C420.810181,123.764389 404.582794,146.500519 381.369781,164.480850 
	C354.674652,185.158356 323.734589,196.917404 292.062775,206.821426 
	C270.980560,213.414017 249.222443,217.820480 228.040619,224.125198 
	C197.157455,233.317459 169.043686,247.441574 147.170609,272.141754 
	C123.855690,298.470123 113.150337,329.646942 111.109749,364.164459 
	C109.027893,399.379913 115.943123,433.326691 126.432838,466.710480 
	C137.155548,500.835876 152.070175,533.136780 168.912231,564.601440 
	C173.198853,572.609802 177.598679,580.557617 181.946487,588.533264 
	C181.709442,583.360901 180.280106,578.645142 179.241684,573.844849 
	C172.217667,541.374817 164.613724,509.009949 158.553329,476.359375 
	C154.836426,456.334473 152.605347,435.914917 151.458450,415.573792 
	C150.698395,402.093719 152.323868,388.342255 154.140076,374.882111 
	C157.991837,346.336334 169.909256,321.504486 190.488113,301.029572 
	C207.419235,284.183960 228.061462,273.699158 250.329041,266.103394 
	C275.361420,257.564514 300.691650,249.863724 325.536835,240.821625 
	C348.053375,232.626999 368.556885,220.440048 386.661438,204.646347 
	C407.583313,186.394943 421.202148,163.499863 428.517822,135.891815 
M888.274658,1062.191162 
	C885.119507,1050.312744 883.177429,1037.935913 878.547363,1026.663330 
	C869.895752,1005.599548 860.403137,984.805420 849.959412,964.570557 
	C832.595398,930.927490 816.132263,896.981995 805.309021,860.570068 
	C797.900635,835.646912 792.757874,810.293945 790.880859,784.320923 
	C790.508545,779.168579 790.012268,774.025269 789.573181,768.877747 
	C788.282288,770.140869 787.671082,771.454041 787.267761,772.828308 
	C776.593933,809.200134 775.144409,846.298645 780.324219,883.526184 
	C786.669922,929.132507 804.271545,970.947388 826.357544,1010.985352 
	C840.561279,1036.734131 852.547241,1063.385498 860.117981,1091.872192 
	C864.949890,1110.053223 868.610840,1128.484863 869.031189,1147.349731 
	C869.390137,1163.457642 869.290283,1179.582764 869.036194,1195.694580 
	C868.907532,1203.852417 867.989258,1211.997681 867.347412,1221.319092 
	C868.478821,1219.571777 869.062500,1218.826172 869.483459,1217.997803 
	C886.165100,1185.166260 893.878662,1150.088379 893.581055,1113.512695 
	C893.444031,1096.664795 890.309448,1079.841553 888.274658,1062.191162 
M776.785278,458.337311 
	C788.204712,429.847443 804.117676,403.950287 822.824463,379.636139 
	C781.918701,407.054443 750.699341,442.394775 732.010132,488.094879 
	C723.297302,509.400116 718.450073,531.574036 717.179443,554.684082 
	C731.773376,554.684082 745.645386,554.684082 759.572266,554.684082 
	C759.694031,553.623535 759.907227,552.954346 759.823120,552.324829 
	C757.633728,535.945374 759.599243,519.716125 763.214966,503.880676 
	C766.677856,488.714478 771.968811,473.965698 776.785278,458.337311 
M559.834167,1109.507324 
	C566.598938,1095.711182 575.908325,1083.846191 587.384766,1073.701782 
	C594.614014,1067.311523 601.919312,1060.987061 609.483154,1055.002930 
	C614.460327,1051.065430 618.369507,1046.685425 620.325378,1040.511230 
	C622.524170,1033.570557 627.362122,1028.534424 633.201721,1024.406982 
	C634.831970,1023.254761 636.611938,1022.300049 638.167664,1021.059570 
	C642.473755,1017.626160 641.519714,1010.185852 636.299316,1008.531067 
	C624.703430,1004.855347 615.483826,997.581848 606.526489,989.808105 
	C601.214966,985.198547 600.283752,985.185608 596.054504,991.053894 
	C593.509277,994.585571 590.744202,996.045105 586.310242,994.867493 
	C581.352783,993.550964 577.979675,996.665710 579.033020,1001.643555 
	C579.628113,1004.456055 581.013000,1007.384644 582.842712,1009.599487 
	C588.316040,1016.224304 589.452026,1023.467651 586.020386,1031.065918 
	C582.817200,1038.158203 579.018250,1045.009521 575.101990,1051.746094 
	C566.743774,1066.123413 557.429199,1079.990112 549.794434,1094.732910 
	C536.636963,1120.140015 536.133240,1147.822632 537.455444,1175.687744 
	C542.862793,1153.164307 548.787354,1130.858521 559.834167,1109.507324 
M532.444885,241.022400 
	C536.242065,241.386139 540.151184,242.491333 543.809937,241.938553 
	C549.198425,241.124405 546.708557,235.671600 548.027466,232.432739 
	C550.574768,226.177658 554.078552,222.892593 559.579041,223.381210 
	C562.836731,223.670593 565.552917,223.656540 566.888977,220.004562 
	C568.388550,215.905930 569.442078,211.669922 565.580750,208.498016 
	C563.079224,206.443176 559.972595,204.765472 556.863892,203.899460 
	C552.901245,202.795563 552.278015,200.477112 553.084412,197.179184 
	C553.832458,194.119736 555.015137,191.164459 555.724487,188.098083 
	C557.437378,180.693298 561.017273,178.302002 568.658630,179.097778 
	C570.955078,179.336929 573.977600,179.219254 575.622742,177.930969 
	C582.075073,172.878296 580.625854,162.564590 573.150024,159.423431 
	C568.388123,157.422577 565.157593,154.417023 563.423096,149.447388 
	C561.034058,142.602097 554.747925,139.449722 548.273132,142.952438 
	C539.962280,147.448380 532.344543,146.887985 523.911072,143.731506 
	C515.468140,140.571503 509.914734,145.630875 510.925323,154.661850 
	C511.227966,157.365967 512.327393,158.885910 515.292297,159.015381 
	C518.441345,159.152908 521.617432,159.469223 524.703369,160.094391 
	C532.646118,161.703522 535.305603,166.384979 532.813965,173.962067 
	C529.931091,182.728973 529.931091,182.728973 536.150818,189.289078 
	C534.533936,190.232452 533.127625,191.321838 531.537537,191.932755 
	C525.662842,194.189835 519.780090,193.596069 513.921265,191.696304 
	C510.601105,190.619736 507.303833,189.312561 503.890228,188.721756 
	C498.743225,187.830917 494.959076,191.350723 494.254883,197.124222 
	C493.476410,203.506714 495.049652,205.606674 501.180145,206.368057 
	C511.057373,207.594742 514.899719,211.872391 514.481018,222.627228 
	C514.200562,229.832642 517.412842,234.361786 523.362976,237.425842 
	C526.010925,238.789459 528.890381,239.703674 532.444885,241.022400 
M579.242188,741.745972 
	C583.543457,738.342834 587.545837,734.441040 592.210876,731.644592 
	C600.859192,726.460327 608.244019,730.318542 609.181213,740.250000 
	C609.509521,743.729492 611.086609,745.382874 614.308289,745.855957 
	C633.517273,748.676147 650.588684,743.912109 665.526184,731.475037 
	C667.917725,729.483826 667.843445,727.719238 666.242981,725.071350 
	C663.855408,721.120911 661.453125,716.959106 660.261292,712.560913 
	C658.708252,706.829468 658.429993,700.762268 657.417969,694.871338 
	C656.718018,690.796814 656.171631,686.596191 654.700745,682.781921 
	C653.225342,678.956055 650.147400,678.709717 647.179443,681.577026 
	C646.228394,682.495850 645.478333,683.623352 644.640747,684.658997 
	C634.035706,697.772400 616.140015,702.414124 600.517151,696.102661 
	C587.852112,690.986084 587.852112,690.986084 588.203186,704.781372 
	C588.419983,713.297852 587.323242,714.815002 578.870239,713.482056 
	C566.518555,711.534363 557.812073,727.119568 560.240906,735.705383 
	C563.170410,746.060547 570.264648,748.733704 579.242188,741.745972 
M633.676086,760.931091 
	C627.059814,758.942139 620.295044,757.337341 613.869690,754.854248 
	C607.666260,752.456909 607.036804,752.482056 606.504028,758.941528 
	C606.298828,761.429749 606.149353,763.923096 605.913574,766.408264 
	C605.145630,774.504211 604.045349,775.348816 595.855164,774.221069 
	C582.516479,772.384521 573.798279,782.212402 577.087769,795.377441 
	C579.304260,804.248352 587.474365,807.266724 594.638245,801.668762 
	C598.563293,798.601562 602.067932,795.001648 605.923279,791.838440 
	C609.474426,788.924744 613.544739,787.630859 617.993713,789.680359 
	C622.350891,791.687622 622.935120,795.687561 622.664917,799.834839 
	C622.409668,803.753601 624.414185,805.893188 627.871948,806.587463 
	C632.582947,807.533447 637.360718,808.485229 642.140991,808.683105 
	C655.130615,809.220825 666.854675,804.297119 678.667542,799.728210 
	C682.951843,798.071289 684.068787,795.861511 681.836731,791.837463 
	C676.288818,781.835571 675.541748,770.997742 676.185425,759.860291 
	C676.374634,756.586121 676.194092,753.144409 675.372742,749.990540 
	C673.963379,744.578735 670.091064,743.609131 666.276306,747.725769 
	C657.669495,757.013489 646.950928,760.900208 633.676086,760.931091 
M554.022034,677.194153 
	C558.023865,674.651489 562.152161,672.285645 566.002197,669.530701 
	C575.192993,662.954163 583.485718,665.256287 586.781372,675.475220 
	C589.572998,684.131226 591.641785,685.702820 600.772827,685.643982 
	C617.566833,685.535645 631.622620,678.357544 644.435181,668.274841 
	C645.298157,667.595764 645.621826,664.899963 644.997070,663.868774 
	C639.006592,653.982300 635.644836,643.383545 634.863953,631.826660 
	C634.648010,628.631042 633.486145,625.258362 631.897644,622.454468 
	C629.663208,618.510376 627.223267,618.470886 623.970825,621.526917 
	C622.394470,623.008179 620.939880,624.628906 619.290100,626.020508 
	C606.190491,637.070312 591.960449,641.619446 575.561768,633.504639 
	C574.374084,632.916992 573.107910,632.466125 571.843445,632.059570 
	C568.684265,631.043701 566.670532,631.681458 566.581970,635.533813 
	C566.509399,638.689941 566.348328,641.870972 565.864563,644.984741 
	C564.958313,650.818481 562.757202,652.213928 556.949707,651.039185 
	C548.737610,649.377991 543.394226,652.779053 542.391968,660.305176 
	C540.994751,670.796875 544.697815,676.570557 554.022034,677.194153 
M677.572693,872.022034 
	C687.705444,869.938599 687.658447,869.492310 685.658508,859.516663 
	C684.333008,852.904785 684.029236,846.046997 683.746033,839.279358 
	C683.489258,833.141174 684.355713,826.937134 683.859558,820.832642 
	C683.287109,813.790100 680.676880,812.892029 675.099426,817.055664 
	C660.056824,828.284851 645.315918,829.068542 629.039673,819.501648 
	C626.887390,818.236572 624.737061,816.968018 622.593201,815.688843 
	C619.703979,813.964905 618.215637,814.973022 617.930237,818.130188 
	C617.585388,821.944641 617.344482,825.768433 617.009399,829.583862 
	C616.684326,833.285156 614.745728,834.957520 610.965454,834.300476 
	C608.014160,833.787598 605.058044,833.291321 602.091003,832.882507 
	C591.758423,831.458801 584.565491,837.836914 584.791748,848.293762 
	C584.893311,852.988831 586.098328,857.326233 590.624146,859.704102 
	C594.921204,861.961731 599.027710,860.834167 602.878479,858.315125 
	C606.079041,856.221436 609.090149,853.743652 612.500061,852.082458 
	C622.158081,847.377441 628.857056,851.488892 628.546143,862.179260 
	C628.410278,866.850891 630.306824,868.732849 634.304443,869.966614 
	C648.283752,874.280701 662.409851,875.022766 677.572693,872.022034 
M590.749756,572.394165 
	C577.975891,581.683472 565.006531,582.160095 551.705811,573.445374 
	C549.478516,571.986023 546.857117,571.128052 543.528992,569.578308 
	C543.244080,573.788025 542.970520,576.724609 542.860229,579.667358 
	C542.535095,588.343384 541.572693,589.097351 533.414734,586.890747 
	C532.290039,586.586609 531.160400,586.273621 530.013428,586.083069 
	C523.339294,584.974487 519.041870,587.879089 518.733398,594.595520 
	C518.573486,598.077148 519.415588,601.948059 520.943115,605.089783 
	C523.786926,610.938660 528.183655,612.149597 534.235840,609.792053 
	C536.716309,608.825806 539.184448,607.771423 541.744934,607.077209 
	C551.979309,604.302368 557.598022,606.571960 563.299927,615.594788 
	C564.189575,617.002563 564.772217,618.856873 566.033386,619.726135 
	C568.906006,621.706299 572.043945,624.513184 575.193542,624.676270 
	C591.439575,625.517456 605.435669,619.298157 617.856628,609.247437 
	C618.779724,608.500488 619.530701,606.016235 619.013428,605.250427 
	C614.026367,597.867615 614.047119,589.589294 613.919556,581.199829 
	C613.838989,575.903198 613.443298,570.516724 612.328064,565.356628 
	C611.180664,560.047974 607.792053,559.201599 603.568359,562.473816 
	C599.487549,565.635376 595.415955,568.808777 590.749756,572.394165 
M611.120789,892.501282 
	C607.535767,891.793030 603.960876,890.597107 600.362671,890.522095 
	C597.161011,890.455383 593.651794,891.031799 590.776855,892.384094 
	C585.056152,895.075073 583.202637,903.336731 586.287048,909.935364 
	C589.004456,915.748840 593.590088,917.295166 600.491577,914.643372 
	C603.281799,913.571350 605.940674,912.097961 608.791626,911.254395 
	C618.942017,908.251099 625.448792,913.274841 625.353088,923.546326 
	C625.338745,925.094299 626.616150,927.303223 627.956787,928.114563 
	C641.471069,936.293640 656.101318,940.615601 672.013062,940.477173 
	C675.766418,940.444519 677.080688,939.067627 676.732056,935.433228 
	C675.754517,925.244202 678.396240,915.662292 681.697266,906.163879 
	C683.166138,901.937256 684.508118,897.600525 685.252747,893.202881 
	C686.490234,885.894104 684.360962,884.260986 677.585876,886.822998 
	C661.147583,893.038940 645.654602,891.625000 631.239563,881.196960 
	C629.758057,880.125183 628.244019,879.086060 626.673828,878.151489 
	C622.592957,875.722351 621.038879,876.341187 619.991028,880.857910 
	C619.427551,883.286865 619.087158,885.766724 618.598938,888.214172 
	C617.864380,891.896606 615.969360,893.908447 611.120789,892.501282 
M573.970764,514.664490 
	C560.488464,523.468811 546.900574,525.429565 533.089172,515.351990 
	C531.884705,514.473145 530.543762,513.764160 529.214294,513.076782 
	C524.759521,510.773438 523.250366,511.574677 522.619507,516.514954 
	C521.181458,527.776306 521.181519,527.776306 510.189575,525.084839 
	C504.621216,523.721375 499.722687,525.542725 497.894897,530.021973 
	C495.666534,535.482727 497.208832,540.526978 500.489288,545.067322 
	C503.548706,549.301697 507.520416,548.186157 511.751740,546.942200 
	C525.153564,543.002380 532.927246,546.043762 540.918579,557.466492 
	C542.560852,559.813904 544.921387,562.123840 547.479980,563.286011 
	C559.767883,568.867188 584.770020,563.090210 593.416687,552.773376 
	C594.343933,551.667053 594.692444,548.958496 593.986755,547.796448 
	C591.124634,543.083740 590.633728,538.250488 591.375427,532.914734 
	C592.106079,527.658875 592.615479,522.300781 592.425476,517.016235 
	C592.318237,514.033630 590.931274,510.939880 589.516724,508.209076 
	C588.293579,505.847778 586.188782,505.302673 583.749939,507.349304 
	C580.821472,509.806793 577.639587,511.962372 573.970764,514.664490 
M1148.899292,739.151794 
	C1148.645630,740.571106 1148.173218,741.990051 1148.170776,743.409790 
	C1148.125610,769.724976 1148.133057,796.040222 1148.147583,822.355469 
	C1148.148193,823.474304 1148.322388,824.593079 1148.414917,825.702026 
	C1165.149780,825.702026 1181.656860,826.577454 1198.025146,825.444580 
	C1213.011108,824.407349 1220.212646,814.612732 1219.383057,800.080139 
	C1218.876221,791.203369 1214.600220,784.837341 1206.676758,780.572021 
	C1215.712524,773.825378 1217.315918,764.994568 1214.691528,755.289368 
	C1212.138550,745.848145 1204.863647,741.454285 1195.720459,739.796448 
	C1192.788574,739.264832 1189.777100,738.949768 1186.799561,738.930664 
	C1174.475464,738.851868 1162.150269,738.924255 1148.899292,739.151794 
M553.826477,463.718140 
	C540.719116,468.637604 528.694519,466.508484 517.471558,458.357941 
	C509.210876,452.358765 509.144867,452.449677 507.827606,462.581848 
	C507.191772,467.472626 505.469574,468.601807 500.743774,467.134918 
	C499.476349,466.741516 498.261383,466.172272 497.035980,465.651520 
	C485.640350,460.808685 480.769257,464.408234 481.861206,476.895416 
	C481.976898,478.218445 482.188354,479.541840 482.470825,480.839966 
	C483.340820,484.837921 485.717987,486.890930 489.944672,486.517822 
	C491.603119,486.371429 493.310852,486.508362 494.924377,486.171936 
	C507.110626,483.631348 515.283630,488.782135 521.642456,498.931610 
	C523.649414,502.135010 527.589355,505.182983 531.212769,506.131317 
	C545.292908,509.816376 558.987427,508.071655 571.664185,500.595123 
	C572.615723,500.033905 573.523438,497.777252 573.144409,496.833771 
	C569.639954,488.109375 570.798828,480.710999 578.067078,474.250305 
	C581.334045,471.346344 580.926758,461.328674 578.011780,457.853973 
	C574.879944,454.120758 570.095703,454.213562 564.488525,457.832397 
	C561.301147,459.889557 557.891296,461.601959 553.826477,463.718140 
M533.729675,453.082123 
	C541.278687,451.343262 548.865479,449.748749 556.357544,447.791931 
	C559.211060,447.046631 559.901428,445.200928 558.490479,442.062195 
	C555.633789,435.707611 556.545227,429.732208 561.904114,424.797485 
	C563.124756,423.673492 564.325562,422.495483 565.348511,421.195251 
	C568.719299,416.910919 568.738770,409.766663 565.481445,405.858887 
	C562.227966,401.955719 558.613586,401.606415 552.425781,404.608795 
	C551.528015,405.044373 550.649597,405.519806 549.761780,405.975769 
	C533.146851,414.508301 518.360779,412.093811 505.303101,398.790161 
	C503.749115,397.206879 501.924103,395.889618 499.140503,393.530029 
	C498.356964,397.673096 497.848938,400.519928 497.274963,403.353394 
	C496.565674,406.854919 494.780334,408.209229 491.203522,406.584351 
	C488.951019,405.561066 486.585236,404.632721 484.172577,404.145813 
	C477.396759,402.778412 474.107117,404.086823 472.342468,408.472717 
	C470.199890,413.797943 472.441406,424.224854 476.360413,426.508911 
	C477.267365,427.037445 478.604431,427.190643 479.669861,427.029358 
	C492.592041,425.073425 501.354340,430.580719 507.577637,441.675507 
	C509.146179,444.471863 512.193237,447.144318 515.170715,448.293610 
	C520.844666,450.483765 526.957886,451.535858 533.729675,453.082123 
M1443.447144,812.107056 
	C1445.474243,814.751160 1447.945312,817.167969 1449.438965,820.085205 
	C1452.890991,826.826965 1458.400146,826.863159 1464.666504,825.682129 
	C1464.666504,796.813843 1464.666504,768.111267 1464.666504,739.328247 
	C1460.362793,739.328247 1456.442749,739.328247 1451.881348,739.328247 
	C1451.881348,759.772766 1451.881348,779.942810 1451.881348,801.564148 
	C1449.905762,799.144409 1448.866577,797.944641 1447.906494,796.684509 
	C1434.882080,779.590820 1421.570679,762.703308 1409.015259,745.271423 
	C1404.675171,739.245728 1399.939697,737.925415 1393.232666,739.573425 
	C1393.232666,768.302734 1393.232666,797.009949 1393.232666,825.759338 
	C1397.622314,825.759338 1401.673340,825.759338 1406.268921,825.759338 
	C1406.268921,805.356323 1406.268921,785.313293 1406.268921,763.698669 
	C1419.161377,780.487122 1431.086670,796.016174 1443.447144,812.107056 
M1000.261108,700.206360 
	C1018.636719,699.470825 1031.524170,690.686401 1038.152710,673.526611 
	C1040.097656,668.491211 1041.061523,662.913330 1041.532959,657.501892 
	C1043.153931,638.899414 1033.581055,622.260132 1017.091248,614.169861 
	C1002.502563,607.012390 981.555298,609.857239 969.705200,620.605530 
	C955.310425,633.661926 950.732422,653.826965 957.849487,672.827271 
	C964.620789,690.904602 978.348877,699.957031 1000.261108,700.206360 
M1259.294189,619.210266 
	C1254.570801,616.893311 1249.954346,612.885132 1245.103882,612.578369 
	C1230.915771,611.681091 1216.634155,612.259277 1202.379395,612.259277 
	C1202.379395,640.956360 1202.379395,669.968323 1202.379395,699.041992 
	C1206.799316,699.041992 1210.855957,699.041992 1215.301025,699.041992 
	C1215.301025,690.131653 1215.301025,681.539001 1215.301025,672.277405 
	C1222.282471,672.277405 1228.895630,672.047913 1235.474854,672.419922 
	C1237.399536,672.528748 1239.870117,673.893738 1240.983887,675.466553 
	C1244.918945,681.023621 1248.354614,686.932861 1252.016479,692.685120 
	C1256.569458,699.837402 1260.847778,701.250610 1269.395386,698.331116 
	C1263.495239,688.921692 1257.622803,679.556763 1251.792847,670.259338 
	C1270.689331,655.647583 1273.777588,634.952454 1259.294189,619.210266 
M892.171448,811.401611 
	C894.801819,815.446045 897.349548,819.548401 900.116150,823.497437 
	C900.881836,824.590271 902.244507,825.856812 903.425537,825.957153 
	C907.148804,826.273315 910.915833,826.073669 915.563721,826.073669 
	C909.076294,815.840454 903.087585,806.393921 897.009460,796.806458 
	C898.347778,796.053223 899.210938,795.580139 900.062012,795.086304 
	C910.795044,788.857849 915.865295,777.165344 913.858154,763.279114 
	C912.186584,751.714294 904.370056,741.962036 892.492432,740.484314 
	C877.772034,738.652954 862.786865,738.949829 847.766907,738.321106 
	C847.766907,768.259949 847.766907,796.995483 847.766907,825.704590 
	C852.303345,825.704590 856.519714,825.704590 860.962097,825.704590 
	C860.962097,820.998840 860.962097,816.685120 860.962097,812.371460 
	C860.962097,808.079956 860.962097,803.788452 860.962097,799.203247 
	C864.625305,799.203247 867.858276,799.667969 870.908569,799.118469 
	C881.196411,797.265198 888.079224,801.086304 892.171448,811.401611 
M1013.959595,778.711365 
	C1013.629150,776.573181 1013.391724,774.415710 1012.954224,772.299622 
	C1006.257690,739.911682 966.759033,726.148804 941.969116,747.551819 
	C926.256531,761.117676 922.064453,786.724060 932.446411,805.718567 
	C942.087585,823.357788 963.081909,831.380737 983.792297,825.340454 
	C1003.524353,819.585449 1014.656616,802.762024 1013.959595,778.711365 
M659.903015,953.820312 
	C645.057617,953.801697 633.013733,947.532288 622.454651,937.506653 
	C616.846436,932.181824 616.120972,932.452393 613.860657,939.864075 
	C612.397339,944.662231 609.652710,946.338684 604.897461,945.061707 
	C600.887451,943.984863 596.801941,943.151245 592.858521,941.874268 
	C588.302246,940.398682 584.278076,940.797302 580.986267,944.441284 
	C577.738098,948.036743 577.405762,954.958191 580.108398,960.048889 
	C582.366333,964.301819 586.043945,965.456299 590.624390,964.968567 
	C594.751709,964.529053 598.933594,964.017578 603.055054,964.232788 
	C610.526367,964.623047 613.843750,969.603333 612.149475,976.923706 
	C611.899353,978.004456 611.964417,979.742310 612.635864,980.364502 
	C622.708862,989.699036 634.294189,996.386230 647.877380,998.955505 
	C649.552612,999.272339 652.672424,997.332458 653.544556,995.629944 
	C658.692139,985.580566 663.411865,975.310242 668.199158,965.078613 
	C672.571838,955.733215 671.753418,954.362305 661.805847,953.927185 
	C661.473145,953.912659 661.140808,953.889771 659.903015,953.820312 
M503.017273,387.478638 
	C514.752747,397.754578 528.279724,399.018219 542.803955,395.457642 
	C546.318848,394.595947 547.530640,393.015625 546.758911,389.087524 
	C545.009094,380.181061 548.156128,375.363708 556.779114,371.663605 
	C558.642029,370.864197 560.611816,369.439911 561.641602,367.758026 
	C563.671509,364.442657 562.502869,355.822998 559.998718,353.513397 
	C556.275330,350.079407 552.316406,351.587128 548.355103,353.204010 
	C530.318176,360.566040 516.173767,357.535248 502.521820,343.500488 
	C500.988556,341.924255 499.234924,340.562469 496.872131,338.471832 
	C496.028320,342.396851 495.431763,345.269592 494.789642,348.132111 
	C494.089325,351.254059 492.299225,352.256104 489.296906,350.918732 
	C486.563812,349.701324 483.869080,348.357849 481.049194,347.383179 
	C474.458496,345.105042 469.866669,347.833405 468.927368,354.771393 
	C468.555511,357.518341 468.864471,360.413055 469.233368,363.191406 
	C469.773193,367.257233 471.718109,369.043976 476.372833,368.363342 
	C486.373993,366.900848 493.798218,371.139557 498.605011,380.017670 
	C499.869598,382.353394 501.242798,384.630280 503.017273,387.478638 
M1162.497070,648.382507 
	C1154.746704,648.382507 1146.996338,648.382507 1139.220459,648.382507 
	C1139.220459,639.584656 1139.220459,631.358215 1139.220459,622.844971 
	C1153.998291,622.844971 1168.437866,622.844971 1183.443970,622.844971 
	C1183.758789,618.925659 1184.052979,615.263000 1184.345337,611.624573 
	C1164.392944,611.624573 1145.302002,611.624573 1126.083008,611.624573 
	C1126.083008,640.944397 1126.083008,670.000549 1126.083008,699.150818 
	C1145.800537,699.150818 1165.219727,699.150818 1185.084229,699.150818 
	C1185.330688,695.398499 1185.563843,691.850098 1185.820435,687.942627 
	C1169.920044,687.942627 1154.632568,687.942627 1139.238403,687.942627 
	C1139.238403,678.410583 1139.238403,669.205688 1139.238403,659.517639 
	C1152.683716,659.517639 1165.743652,659.517639 1178.706665,659.517639 
	C1178.706665,655.603821 1178.706665,652.183838 1178.706665,648.381470 
	C1173.433838,648.381470 1168.464233,648.381470 1162.497070,648.382507 
M549.216003,301.734680 
	C528.980957,310.742157 514.105591,301.530853 501.168915,286.503357 
	C495.318878,297.450623 495.319244,297.449799 484.704041,292.756531 
	C484.096497,292.487915 483.447845,291.982727 482.865295,292.042847 
	C479.890533,292.349731 476.471130,292.012451 474.076538,293.400299 
	C470.663086,295.378723 469.440613,303.220215 471.013336,307.238312 
	C472.745178,311.662903 476.563690,311.946777 480.515656,312.047180 
	C490.613037,312.303619 496.669556,317.187653 499.843872,326.920044 
	C500.782806,329.798798 502.253448,333.079803 504.517822,334.847870 
	C512.913757,341.403625 522.804260,344.296967 533.399475,344.104279 
	C539.687439,343.989960 541.459717,341.900421 541.582092,335.747437 
	C541.710083,329.308228 546.672363,320.780762 554.745483,321.868622 
	C555.915466,322.026276 557.459106,321.550262 558.405884,320.818756 
	C561.135315,318.709747 561.789795,311.457581 559.603027,307.178772 
	C557.647705,303.352753 555.305725,299.802246 549.216003,301.734680 
M1519.499512,677.655334 
	C1524.831177,677.667603 1530.168945,677.837769 1535.491821,677.627930 
	C1538.298950,677.517212 1539.652954,678.529358 1540.619751,681.116028 
	C1542.542358,686.260193 1544.690674,691.331299 1547.019775,696.304199 
	C1547.606812,697.557312 1549.151245,699.043518 1550.392090,699.179382 
	C1553.933228,699.567566 1557.544434,699.315857 1561.468872,699.315857 
	C1561.116211,697.936829 1561.030640,697.290466 1560.790405,696.707886 
	C1550.126831,670.840149 1539.534424,644.942566 1528.730591,619.133484 
	C1524.664795,609.421143 1527.417847,611.629578 1516.589600,611.205383 
	C1513.199585,611.072510 1511.592529,612.224548 1510.334229,615.354919 
	C1501.641235,636.983459 1492.746216,658.530762 1483.934570,680.111633 
	C1481.439697,686.222168 1479.005859,692.357605 1476.255005,699.200928 
	C1479.410767,699.200928 1481.878540,698.953186 1484.276489,699.256897 
	C1488.232666,699.757812 1490.338867,698.394104 1491.510498,694.429443 
	C1492.825195,689.980591 1495.150757,685.838257 1496.612305,681.422241 
	C1497.645874,678.299500 1499.398682,677.447876 1502.507935,677.588745 
	C1507.828613,677.829834 1513.168091,677.655823 1519.499512,677.655334 
M1384.163696,682.480103 
	C1384.163696,679.211243 1384.163696,675.942444 1384.163696,671.871094 
	C1392.565918,671.871094 1400.363892,672.249451 1408.112183,671.790466 
	C1423.144165,670.900085 1433.038086,663.468079 1436.266968,651.304565 
	C1442.140015,629.181580 1429.033813,611.720276 1406.137939,611.341370 
	C1395.657471,611.167847 1385.171875,611.283997 1374.688599,611.312195 
	C1373.584106,611.315186 1372.480225,611.612488 1371.307129,611.783203 
	C1371.307129,640.983337 1371.307129,669.895081 1371.307129,699.072266 
	C1375.581787,699.072266 1379.651733,699.072266 1384.163940,699.072266 
	C1384.163940,693.732422 1384.163940,688.606995 1384.163696,682.480103 
M1309.597168,614.920593 
	C1298.159790,642.830750 1286.722412,670.740845 1275.034058,699.263367 
	C1278.505615,699.263367 1281.322266,699.004150 1284.070435,699.327148 
	C1287.738037,699.758118 1289.374268,698.185120 1290.486938,694.839233 
	C1292.057251,690.117432 1293.946533,685.463501 1296.179077,681.021606 
	C1296.931396,679.524719 1299.124512,677.847656 1300.695312,677.811035 
	C1312.174805,677.544006 1323.665771,677.566895 1335.146606,677.809875 
	C1336.621094,677.841064 1338.727661,679.342346 1339.391968,680.717773 
	C1341.846313,685.799011 1343.702271,691.166260 1346.054565,696.301697 
	C1346.623779,697.544250 1348.150879,699.018860 1349.378906,699.160400 
	C1352.776001,699.552002 1356.247803,699.295898 1360.222778,699.295898 
	C1359.566162,697.351685 1359.181519,695.963989 1358.638306,694.641479 
	C1348.153564,669.114319 1337.463989,643.668579 1327.300781,618.014221 
	C1325.160156,612.611023 1322.466431,610.272400 1316.822754,611.262939 
	C1314.260132,611.712708 1310.873779,610.055420 1309.597168,614.920593 
M1312.812988,784.136108 
	C1307.100952,797.890747 1301.388794,811.645386 1295.387451,826.096680 
	C1298.893188,826.096680 1301.701050,825.831543 1304.437134,826.161987 
	C1308.085083,826.602661 1309.800293,825.116760 1310.907593,821.737061 
	C1312.406128,817.163818 1314.588379,812.817749 1316.168823,808.267090 
	C1317.077148,805.651367 1318.418579,804.691284 1321.231323,804.747986 
	C1330.054443,804.926147 1338.883423,804.816040 1347.710205,804.808228 
	C1359.203613,804.798035 1359.203613,804.794128 1363.485352,815.257874 
	C1368.062378,826.442810 1368.062378,826.445923 1380.118530,826.033936 
	C1380.381226,826.025024 1380.633667,825.713623 1381.085449,825.414490 
	C1380.832642,824.703247 1380.602051,823.939209 1380.295044,823.207214 
	C1369.610840,797.747986 1358.938965,772.283447 1348.217163,746.840027 
	C1344.849365,738.847839 1344.779297,739.095215 1336.141479,738.810974 
	C1332.451782,738.689514 1330.979492,740.093445 1329.688110,743.317566 
	C1324.309204,756.747253 1318.634399,770.058472 1312.812988,784.136108 
M897.324158,696.817871 
	C907.644592,691.892578 911.575439,683.412842 910.934692,672.379028 
	C910.321106,661.813232 903.407959,656.589294 894.497437,653.192932 
	C890.927368,651.832153 887.196716,650.894897 883.545715,649.743896 
	C878.630310,648.194275 873.550781,647.017517 868.846924,644.977112 
	C860.394836,641.311035 859.481323,631.114746 867.096741,625.832520 
	C869.466064,624.189026 872.493286,623.137207 875.362793,622.636292 
	C885.294434,620.902527 894.520447,622.762573 902.873657,629.681274 
	C904.415222,625.528259 905.777100,621.859253 907.094421,618.310242 
	C894.985596,608.339966 871.160522,607.767700 858.800171,616.445679 
	C846.341492,625.192627 843.568909,649.091492 862.894348,656.734253 
	C868.290466,658.868286 873.997986,660.207214 879.538940,661.984985 
	C883.492615,663.253357 887.513977,664.397949 891.310852,666.045532 
	C896.031494,668.093933 898.455322,671.828552 898.009644,677.175903 
	C897.567139,682.486633 894.532104,685.773254 889.691711,687.265259 
	C886.867310,688.135925 883.826050,688.545044 880.861084,688.674194 
	C870.022644,689.146301 860.179871,686.263733 851.597717,678.707825 
	C850.797241,680.839355 850.450745,682.518616 849.602051,683.886169 
	C846.525269,688.843994 848.548401,691.659302 853.179382,693.988037 
	C867.262817,701.070068 881.670654,702.640625 897.324158,696.817871 
M495.340820,240.204605 
	C491.157501,238.798294 486.698395,237.372818 483.214142,241.109787 
	C479.467072,245.128647 479.700806,250.411743 480.956146,255.310959 
	C482.196167,260.150421 486.832367,258.692017 490.226074,259.190979 
	C499.223541,260.513733 503.422729,265.421204 504.188660,274.506561 
	C504.442871,277.521912 505.791626,281.281982 507.970306,283.149567 
	C516.277710,290.270599 526.229431,293.067657 537.176758,292.007965 
	C540.205872,291.714722 541.698792,290.417969 541.838379,286.916290 
	C542.259705,276.346130 545.708435,273.086670 556.479431,270.996643 
	C558.435486,270.617065 560.597351,268.460602 561.561035,266.563934 
	C562.628052,264.463898 562.577271,261.730469 562.747864,259.254608 
	C563.061279,254.706284 560.368164,252.524750 556.249146,251.991730 
	C554.305603,251.740219 552.195129,251.817398 550.301208,252.299576 
	C537.511658,255.555740 527.147156,251.255936 518.045044,242.441635 
	C515.854431,240.320251 513.227173,238.649734 510.740448,236.725204 
	C505.304626,245.705048 505.304657,245.705002 496.469177,240.770844 
	C496.323975,240.689743 496.175995,240.613510 495.340820,240.204605 
M1495.182739,778.654846 
	C1496.508057,766.218201 1502.322388,756.737244 1514.200317,752.144531 
	C1527.211182,747.113831 1539.055664,749.613220 1549.318970,759.951843 
	C1551.981323,756.982483 1554.493286,754.180664 1557.074585,751.301514 
	C1549.758057,739.523743 1531.071289,734.391479 1512.733276,739.430054 
	C1494.224487,744.515625 1482.074463,760.920959 1481.775391,781.230530 
	C1481.468628,802.060364 1492.771729,819.743469 1510.236694,824.856995 
	C1525.546143,829.339417 1547.990967,828.287109 1558.038452,812.695618 
	C1555.501343,810.042419 1552.909790,807.332336 1550.082397,804.375671 
	C1541.103638,814.588501 1530.123901,817.455933 1517.703613,814.342712 
	C1503.362915,810.747986 1494.786011,797.215393 1495.182739,778.654846 
M1041.317871,769.266174 
	C1045.580322,758.685486 1053.279297,752.196472 1064.541992,750.315308 
	C1075.601807,748.468079 1085.308838,751.309937 1093.010254,759.852173 
	C1095.993286,756.936829 1098.695312,754.296021 1101.365723,751.686218 
	C1088.691772,734.399536 1058.333252,732.650391 1040.655396,747.968323 
	C1021.362305,764.685669 1020.721375,797.989868 1039.346558,815.969727 
	C1056.025269,832.070679 1087.794067,830.767090 1101.889160,813.215759 
	C1099.214844,810.400208 1096.520020,807.563171 1093.782227,804.680847 
	C1081.269409,820.061707 1053.116699,819.756409 1042.816284,798.247070 
	C1038.426880,789.080994 1038.245239,779.652283 1041.317871,769.266174 
M744.692261,697.654236 
	C748.892639,698.413513 753.093018,699.172852 757.752686,700.015198 
	C757.752686,691.122375 757.753906,683.643555 757.752380,676.164734 
	C757.749634,663.287109 757.748962,663.291138 770.529602,663.300781 
	C779.799927,663.307800 789.070190,663.302185 798.407837,663.302185 
	C798.407837,659.212524 798.407837,655.786865 798.407837,651.969971 
	C784.860840,651.969971 771.586304,651.969971 758.032593,651.969971 
	C758.032593,642.178955 758.032593,632.782166 758.032593,622.787659 
	C773.105896,622.787659 787.960754,622.787659 803.060669,622.787659 
	C803.425964,618.804077 803.738892,615.391663 804.081177,611.659241 
	C784.036926,611.659241 764.508972,611.659241 744.656860,611.659241 
	C744.656860,640.249756 744.656860,668.516418 744.692261,697.654236 
M1073.647217,666.499512 
	C1073.647217,677.401184 1073.647217,688.302917 1073.647217,699.046021 
	C1078.422119,699.046021 1082.365356,699.046021 1087.008789,699.046021 
	C1087.008789,673.575684 1087.008789,648.389648 1087.008789,622.822632 
	C1096.302734,622.822632 1104.894287,622.822632 1113.640991,622.822632 
	C1113.640991,618.877258 1113.640991,615.333862 1113.640991,611.591003 
	C1090.933228,611.591003 1068.532227,611.591003 1045.864258,611.591003 
	C1045.864258,615.392456 1045.864258,618.962097 1045.864258,623.064819 
	C1055.170410,623.064819 1064.231689,623.064819 1073.646606,623.064819 
	C1073.646606,637.562744 1073.646606,651.531128 1073.647217,666.499512 
M1291.783569,815.263000 
	C1277.834473,815.263000 1263.885254,815.263000 1249.294922,815.263000 
	C1249.294922,789.440857 1249.294922,764.399353 1249.294922,739.397095 
	C1244.718628,739.397095 1240.792236,739.397095 1236.743896,739.397095 
	C1236.743896,768.399048 1236.743896,797.100830 1236.743896,825.835327 
	C1255.371338,825.835327 1273.614014,825.835327 1291.865723,825.835327 
	C1291.983154,825.056274 1292.116699,824.574158 1292.118530,824.091492 
	C1292.128784,821.425720 1292.106934,818.759766 1291.783569,815.263000 
M557.447571,138.970169 
	C563.463196,141.673355 563.540405,141.706314 566.167664,135.550949 
	C567.758057,131.824692 570.286621,130.053680 574.365845,130.755447 
	C576.658691,131.149918 578.975586,131.944351 581.236389,131.808044 
	C582.928711,131.705963 585.261597,130.849136 586.068298,129.554871 
	C588.579712,125.525719 586.821838,119.117134 582.468689,117.077660 
	C577.660217,114.824875 575.960999,111.431503 576.236206,106.378403 
	C576.527649,101.030022 573.725098,97.678696 568.757874,95.889175 
	C563.756836,94.087456 558.882446,94.128433 555.717102,98.742592 
	C550.650513,106.128036 544.471863,106.356827 537.002197,103.239098 
	C531.734802,101.040535 528.717529,103.006516 526.924377,109.144745 
	C525.490051,114.054665 526.672791,115.656715 532.711243,117.186287 
	C534.961487,117.756302 537.572693,117.963181 539.297302,119.280685 
	C541.505615,120.967651 544.781494,123.909821 544.467285,125.787270 
	C543.103821,133.934372 547.840820,136.001740 554.065369,137.345062 
	C555.012817,137.549515 555.868042,138.181473 557.447571,138.970169 
M831.269104,698.589111 
	C831.383423,697.273926 831.595459,695.958984 831.597656,694.643616 
	C831.640625,668.674255 831.663574,642.704895 831.672607,616.735535 
	C831.673218,615.123108 831.525818,613.510681 831.434937,611.645508 
	C827.037598,611.645508 822.977478,611.645508 818.791443,611.645508 
	C818.791443,640.942749 818.791443,669.943054 818.791443,699.087585 
	C822.983032,699.087585 826.783325,699.087585 831.269104,698.589111 
M1452.810791,677.499146 
	C1452.810791,684.610596 1452.810791,691.721985 1452.810791,699.045715 
	C1457.446533,699.045715 1461.528564,699.045715 1465.630127,699.045715 
	C1465.630127,669.758240 1465.630127,640.739868 1465.630127,611.738159 
	C1461.176758,611.738159 1457.130859,611.738159 1452.811035,611.738159 
	C1452.811035,633.595764 1452.811035,655.047424 1452.810791,677.499146 
M938.731934,612.086426 
	C934.547791,611.768982 930.363586,611.451599 926.056702,611.124878 
	C926.056702,640.923218 926.056702,669.933411 926.056702,699.016479 
	C930.454346,699.016479 934.543152,699.016479 938.954529,699.016479 
	C938.954529,670.145142 938.954529,641.561401 938.731934,612.086426 
z"/>
<path fill="var(--logo-brand)" opacity="1.000000" stroke="none" 
	d="
M255.133377,446.944824 
	C277.362701,468.979767 294.801697,494.725952 311.802490,520.747375 
	C338.010742,560.861755 359.542236,603.468994 378.379272,647.486023 
	C395.181946,686.749329 408.548126,727.129211 418.383240,768.683411 
	C424.856781,796.034607 430.305176,823.620422 431.889343,851.693115 
	C433.341217,877.421448 434.580750,903.281494 433.630768,928.999146 
	C431.985291,973.545410 423.930054,1017.157349 409.021088,1059.308228 
	C395.249390,1098.243774 375.932343,1134.201050 349.394287,1165.949463 
	C339.288177,1178.039673 327.945740,1189.103760 317.003143,1200.478149 
	C315.671753,1201.862061 313.321106,1203.006958 311.439362,1203.012085 
	C260.944458,1203.150757 210.449081,1203.125977 159.953796,1203.119507 
	C159.629761,1203.119507 159.305771,1202.989502 157.694168,1202.644897 
	C163.483093,1199.979126 168.316284,1197.702148 173.190750,1195.517212 
	C208.222824,1179.814453 240.233704,1159.512573 268.895966,1133.842651 
	C297.646851,1108.093506 320.606445,1077.954712 338.359711,1043.837769 
	C355.865143,1010.196960 366.616730,974.295654 373.117188,937.013245 
	C377.321838,912.898193 379.733795,888.656860 380.188354,864.174011 
	C380.664093,838.551880 379.227417,813.085022 376.289185,787.626648 
	C372.105103,751.373169 364.768860,715.774536 355.047699,680.663818 
	C345.046295,644.540894 332.403992,609.309570 317.419067,574.954041 
	C310.099243,558.172119 302.822449,541.320251 294.411865,525.076965 
	C281.106659,499.380798 266.864746,474.169647 253.181671,448.140686 
	C253.940552,447.333679 254.536957,447.139252 255.133377,446.944824 
z"/>
<path fill="var(--logo-brand)" opacity="1.000000" stroke="none" 
	d="
M894.294067,261.657043 
	C913.019592,270.343903 930.477417,280.290253 944.597595,295.166260 
	C965.098999,316.765198 975.815369,342.526947 978.183472,372.205231 
	C980.847900,405.599091 971.974670,436.115295 954.466980,463.800598 
	C935.451904,493.869568 914.624146,522.793640 894.466553,552.134216 
	C893.508850,553.528198 891.400696,554.929626 889.802917,554.959412 
	C877.308105,555.192993 864.807007,555.097717 852.307922,555.075745 
	C851.671997,555.074646 851.036438,554.813843 849.721680,554.524414 
	C850.378357,552.537292 850.711182,550.609314 851.598145,548.983643 
	C865.310181,523.851746 878.828857,498.608734 892.947205,473.706055 
	C903.810974,454.543823 914.596741,435.386322 920.092468,413.877075 
	C927.987305,382.978668 925.356323,353.683258 904.801086,327.894501 
	C895.428650,316.135620 882.842590,308.133148 869.794373,300.963013 
	C849.515930,289.819855 827.217224,283.845734 805.629761,276.053589 
	C784.640076,268.477173 763.653564,260.880524 744.642700,248.873276 
	C713.622009,229.280655 694.443420,201.486313 686.959473,165.570435 
	C683.741455,150.127197 683.771179,134.503586 684.151611,118.858231 
	C684.195984,117.030151 684.867676,115.217316 686.410522,113.480072 
	C687.258728,117.777977 688.063049,122.085091 688.962036,126.372337 
	C696.984375,164.626862 717.720642,193.558807 752.320496,212.111389 
	C775.039124,224.293198 799.761108,231.265594 824.151550,239.067062 
	C847.428772,246.512497 870.688599,254.012405 894.294067,261.657043 
z"/>
<path fill="var(--logo-brand)" opacity="1.000000" stroke="none" 
	d="
M428.381592,136.280777 
	C421.202148,163.499863 407.583313,186.394943 386.661438,204.646347 
	C368.556885,220.440048 348.053375,232.626999 325.536835,240.821625 
	C300.691650,249.863724 275.361420,257.564514 250.329041,266.103394 
	C228.061462,273.699158 207.419235,284.183960 190.488113,301.029572 
	C169.909256,321.504486 157.991837,346.336334 154.140076,374.882111 
	C152.323868,388.342255 150.698395,402.093719 151.458450,415.573792 
	C152.605347,435.914917 154.836426,456.334473 158.553329,476.359375 
	C164.613724,509.009949 172.217667,541.374817 179.241684,573.844849 
	C180.280106,578.645142 181.709442,583.360901 181.946487,588.533264 
	C177.598679,580.557617 173.198853,572.609802 168.912231,564.601440 
	C152.070175,533.136780 137.155548,500.835876 126.432838,466.710480 
	C115.943123,433.326691 109.027893,399.379913 111.109749,364.164459 
	C113.150337,329.646942 123.855690,298.470123 147.170609,272.141754 
	C169.043686,247.441574 197.157455,233.317459 228.040619,224.125198 
	C249.222443,217.820480 270.980560,213.414017 292.062775,206.821426 
	C323.734589,196.917404 354.674652,185.158356 381.369781,164.480850 
	C404.582794,146.500519 420.810181,123.764389 429.667450,95.765724 
	C430.344238,93.626259 431.166351,91.532753 432.721985,89.574638 
	C433.971497,105.300232 432.213379,120.678955 428.381592,136.280777 
z"/>
<path fill="var(--logo-brand)" opacity="1.000000" stroke="none" 
	d="
M888.404297,1062.599121 
	C890.309448,1079.841553 893.444031,1096.664795 893.581055,1113.512695 
	C893.878662,1150.088379 886.165100,1185.166260 869.483459,1217.997803 
	C869.062500,1218.826172 868.478821,1219.571777 867.347412,1221.319092 
	C867.989258,1211.997681 868.907532,1203.852417 869.036194,1195.694580 
	C869.290283,1179.582764 869.390137,1163.457642 869.031189,1147.349731 
	C868.610840,1128.484863 864.949890,1110.053223 860.117981,1091.872192 
	C852.547241,1063.385498 840.561279,1036.734131 826.357544,1010.985352 
	C804.271545,970.947388 786.669922,929.132507 780.324219,883.526184 
	C775.144409,846.298645 776.593933,809.200134 787.267761,772.828308 
	C787.671082,771.454041 788.282288,770.140869 789.573181,768.877747 
	C790.012268,774.025269 790.508545,779.168579 790.880859,784.320923 
	C792.757874,810.293945 797.900635,835.646912 805.309021,860.570068 
	C816.132263,896.981995 832.595398,930.927490 849.959412,964.570557 
	C860.403137,984.805420 869.895752,1005.599548 878.547363,1026.663330 
	C883.177429,1037.935913 885.119507,1050.312744 888.404297,1062.599121 
z"/>
<path fill="var(--logo-brand)" opacity="1.000000" stroke="none" 
	d="
M776.620850,458.685364 
	C771.968811,473.965698 766.677856,488.714478 763.214966,503.880676 
	C759.599243,519.716125 757.633728,535.945374 759.823120,552.324829 
	C759.907227,552.954346 759.694031,553.623535 759.572266,554.684082 
	C745.645386,554.684082 731.773376,554.684082 717.179443,554.684082 
	C718.450073,531.574036 723.297302,509.400116 732.010132,488.094879 
	C750.699341,442.394775 781.918701,407.054443 822.824463,379.636139 
	C804.117676,403.950287 788.204712,429.847443 776.620850,458.685364 
z"/>
<path fill="var(--logo-highlight)" opacity="1.000000" stroke="none" 
	d="
M559.660156,1109.836182 
	C548.787354,1130.858521 542.862793,1153.164307 537.455444,1175.687744 
	C536.133240,1147.822632 536.636963,1120.140015 549.794434,1094.732910 
	C557.429199,1079.990112 566.743774,1066.123413 575.101990,1051.746094 
	C579.018250,1045.009521 582.817200,1038.158203 586.020386,1031.065918 
	C589.452026,1023.467651 588.316040,1016.224304 582.842712,1009.599487 
	C581.013000,1007.384644 579.628113,1004.456055 579.033020,1001.643555 
	C577.979675,996.665710 581.352783,993.550964 586.310242,994.867493 
	C590.744202,996.045105 593.509277,994.585571 596.054504,991.053894 
	C600.283752,985.185608 601.214966,985.198547 606.526489,989.808105 
	C615.483826,997.581848 624.703430,1004.855347 636.299316,1008.531067 
	C641.519714,1010.185852 642.473755,1017.626160 638.167664,1021.059570 
	C636.611938,1022.300049 634.831970,1023.254761 633.201721,1024.406982 
	C627.362122,1028.534424 622.524170,1033.570557 620.325378,1040.511230 
	C618.369507,1046.685425 614.460327,1051.065430 609.483154,1055.002930 
	C601.919312,1060.987061 594.614014,1067.311523 587.384766,1073.701782 
	C575.908325,1083.846191 566.598938,1095.711182 559.660156,1109.836182 
z"/>
<path fill="var(--logo-highlight)" opacity="1.000000" stroke="none" 
	d="
M532.054810,240.922134 
	C528.890381,239.703674 526.010925,238.789459 523.362976,237.425842 
	C517.412842,234.361786 514.200562,229.832642 514.481018,222.627228 
	C514.899719,211.872391 511.057373,207.594742 501.180145,206.368057 
	C495.049652,205.606674 493.476410,203.506714 494.254883,197.124222 
	C494.959076,191.350723 498.743225,187.830917 503.890228,188.721756 
	C507.303833,189.312561 510.601105,190.619736 513.921265,191.696304 
	C519.780090,193.596069 525.662842,194.189835 531.537537,191.932755 
	C533.127625,191.321838 534.533936,190.232452 536.150818,189.289078 
	C529.931091,182.728973 529.931091,182.728973 532.813965,173.962067 
	C535.305603,166.384979 532.646118,161.703522 524.703369,160.094391 
	C521.617432,159.469223 518.441345,159.152908 515.292297,159.015381 
	C512.327393,158.885910 511.227966,157.365967 510.925323,154.661850 
	C509.914734,145.630875 515.468140,140.571503 523.911072,143.731506 
	C532.344543,146.887985 539.962280,147.448380 548.273132,142.952438 
	C554.747925,139.449722 561.034058,142.602097 563.423096,149.447388 
	C565.157593,154.417023 568.388123,157.422577 573.150024,159.423431 
	C580.625854,162.564590 582.075073,172.878296 575.622742,177.930969 
	C573.977600,179.219254 570.955078,179.336929 568.658630,179.097778 
	C561.017273,178.302002 557.437378,180.693298 555.724487,188.098083 
	C555.015137,191.164459 553.832458,194.119736 553.084412,197.179184 
	C552.278015,200.477112 552.901245,202.795563 556.863892,203.899460 
	C559.972595,204.765472 563.079224,206.443176 565.580750,208.498016 
	C569.442078,211.669922 568.388550,215.905930 566.888977,220.004562 
	C565.552917,223.656540 562.836731,223.670593 559.579041,223.381210 
	C554.078552,222.892593 550.574768,226.177658 548.027466,232.432739 
	C546.708557,235.671600 549.198425,241.124405 543.809937,241.938553 
	C540.151184,242.491333 536.242065,241.386139 532.054810,240.922134 
z"/>
<path fill="var(--logo-highlight)" opacity="1.000000" stroke="none" 
	d="
M578.972900,741.979248 
	C570.264648,748.733704 563.170410,746.060547 560.240906,735.705383 
	C557.812073,727.119568 566.518555,711.534363 578.870239,713.482056 
	C587.323242,714.815002 588.419983,713.297852 588.203186,704.781372 
	C587.852112,690.986084 587.852112,690.986084 600.517151,696.102661 
	C616.140015,702.414124 634.035706,697.772400 644.640747,684.658997 
	C645.478333,683.623352 646.228394,682.495850 647.179443,681.577026 
	C650.147400,678.709717 653.225342,678.956055 654.700745,682.781921 
	C656.171631,686.596191 656.718018,690.796814 657.417969,694.871338 
	C658.429993,700.762268 658.708252,706.829468 660.261292,712.560913 
	C661.453125,716.959106 663.855408,721.120911 666.242981,725.071350 
	C667.843445,727.719238 667.917725,729.483826 665.526184,731.475037 
	C650.588684,743.912109 633.517273,748.676147 614.308289,745.855957 
	C611.086609,745.382874 609.509521,743.729492 609.181213,740.250000 
	C608.244019,730.318542 600.859192,726.460327 592.210876,731.644592 
	C587.545837,734.441040 583.543457,738.342834 578.972900,741.979248 
z"/>
<path fill="var(--logo-highlight)" opacity="1.000000" stroke="none" 
	d="
M634.118042,760.932007 
	C646.950928,760.900208 657.669495,757.013489 666.276306,747.725769 
	C670.091064,743.609131 673.963379,744.578735 675.372742,749.990540 
	C676.194092,753.144409 676.374634,756.586121 676.185425,759.860291 
	C675.541748,770.997742 676.288818,781.835571 681.836731,791.837463 
	C684.068787,795.861511 682.951843,798.071289 678.667542,799.728210 
	C666.854675,804.297119 655.130615,809.220825 642.140991,808.683105 
	C637.360718,808.485229 632.582947,807.533447 627.871948,806.587463 
	C624.414185,805.893188 622.409668,803.753601 622.664917,799.834839 
	C622.935120,795.687561 622.350891,791.687622 617.993713,789.680359 
	C613.544739,787.630859 609.474426,788.924744 605.923279,791.838440 
	C602.067932,795.001648 598.563293,798.601562 594.638245,801.668762 
	C587.474365,807.266724 579.304260,804.248352 577.087769,795.377441 
	C573.798279,782.212402 582.516479,772.384521 595.855164,774.221069 
	C604.045349,775.348816 605.145630,774.504211 605.913574,766.408264 
	C606.149353,763.923096 606.298828,761.429749 606.504028,758.941528 
	C607.036804,752.482056 607.666260,752.456909 613.869690,754.854248 
	C620.295044,757.337341 627.059814,758.942139 634.118042,760.932007 
z"/>
<path fill="var(--logo-highlight)" opacity="1.000000" stroke="none" 
	d="
M553.651001,677.237854 
	C544.697815,676.570557 540.994751,670.796875 542.391968,660.305176 
	C543.394226,652.779053 548.737610,649.377991 556.949707,651.039185 
	C562.757202,652.213928 564.958313,650.818481 565.864563,644.984741 
	C566.348328,641.870972 566.509399,638.689941 566.581970,635.533813 
	C566.670532,631.681458 568.684265,631.043701 571.843445,632.059570 
	C573.107910,632.466125 574.374084,632.916992 575.561768,633.504639 
	C591.960449,641.619446 606.190491,637.070312 619.290100,626.020508 
	C620.939880,624.628906 622.394470,623.008179 623.970825,621.526917 
	C627.223267,618.470886 629.663208,618.510376 631.897644,622.454468 
	C633.486145,625.258362 634.648010,628.631042 634.863953,631.826660 
	C635.644836,643.383545 639.006592,653.982300 644.997070,663.868774 
	C645.621826,664.899963 645.298157,667.595764 644.435181,668.274841 
	C631.622620,678.357544 617.566833,685.535645 600.772827,685.643982 
	C591.641785,685.702820 589.572998,684.131226 586.781372,675.475220 
	C583.485718,665.256287 575.192993,662.954163 566.002197,669.530701 
	C562.152161,672.285645 558.023865,674.651489 553.651001,677.237854 
z"/>
<path fill="var(--logo-highlight)" opacity="1.000000" stroke="none" 
	d="
M677.156860,872.088867 
	C662.409851,875.022766 648.283752,874.280701 634.304443,869.966614 
	C630.306824,868.732849 628.410278,866.850891 628.546143,862.179260 
	C628.857056,851.488892 622.158081,847.377441 612.500061,852.082458 
	C609.090149,853.743652 606.079041,856.221436 602.878479,858.315125 
	C599.027710,860.834167 594.921204,861.961731 590.624146,859.704102 
	C586.098328,857.326233 584.893311,852.988831 584.791748,848.293762 
	C584.565491,837.836914 591.758423,831.458801 602.091003,832.882507 
	C605.058044,833.291321 608.014160,833.787598 610.965454,834.300476 
	C614.745728,834.957520 616.684326,833.285156 617.009399,829.583862 
	C617.344482,825.768433 617.585388,821.944641 617.930237,818.130188 
	C618.215637,814.973022 619.703979,813.964905 622.593201,815.688843 
	C624.737061,816.968018 626.887390,818.236572 629.039673,819.501648 
	C645.315918,829.068542 660.056824,828.284851 675.099426,817.055664 
	C680.676880,812.892029 683.287109,813.790100 683.859558,820.832642 
	C684.355713,826.937134 683.489258,833.141174 683.746033,839.279358 
	C684.029236,846.046997 684.333008,852.904785 685.658508,859.516663 
	C687.658447,869.492310 687.705444,869.938599 677.156860,872.088867 
z"/>
<path fill="var(--logo-highlight)" opacity="1.000000" stroke="none" 
	d="
M591.045044,572.185547 
	C595.415955,568.808777 599.487549,565.635376 603.568359,562.473816 
	C607.792053,559.201599 611.180664,560.047974 612.328064,565.356628 
	C613.443298,570.516724 613.838989,575.903198 613.919556,581.199829 
	C614.047119,589.589294 614.026367,597.867615 619.013428,605.250427 
	C619.530701,606.016235 618.779724,608.500488 617.856628,609.247437 
	C605.435669,619.298157 591.439575,625.517456 575.193542,624.676270 
	C572.043945,624.513184 568.906006,621.706299 566.033386,619.726135 
	C564.772217,618.856873 564.189575,617.002563 563.299927,615.594788 
	C557.598022,606.571960 551.979309,604.302368 541.744934,607.077209 
	C539.184448,607.771423 536.716309,608.825806 534.235840,609.792053 
	C528.183655,612.149597 523.786926,610.938660 520.943115,605.089783 
	C519.415588,601.948059 518.573486,598.077148 518.733398,594.595520 
	C519.041870,587.879089 523.339294,584.974487 530.013428,586.083069 
	C531.160400,586.273621 532.290039,586.586609 533.414734,586.890747 
	C541.572693,589.097351 542.535095,588.343384 542.860229,579.667358 
	C542.970520,576.724609 543.244080,573.788025 543.528992,569.578308 
	C546.857117,571.128052 549.478516,571.986023 551.705811,573.445374 
	C565.006531,582.160095 577.975891,581.683472 591.045044,572.185547 
z"/>
<path fill="var(--logo-highlight)" opacity="1.000000" stroke="none" 
	d="
M611.524658,892.605774 
	C615.969360,893.908447 617.864380,891.896606 618.598938,888.214172 
	C619.087158,885.766724 619.427551,883.286865 619.991028,880.857910 
	C621.038879,876.341187 622.592957,875.722351 626.673828,878.151489 
	C628.244019,879.086060 629.758057,880.125183 631.239563,881.196960 
	C645.654602,891.625000 661.147583,893.038940 677.585876,886.822998 
	C684.360962,884.260986 686.490234,885.894104 685.252747,893.202881 
	C684.508118,897.600525 683.166138,901.937256 681.697266,906.163879 
	C678.396240,915.662292 675.754517,925.244202 676.732056,935.433228 
	C677.080688,939.067627 675.766418,940.444519 672.013062,940.477173 
	C656.101318,940.615601 641.471069,936.293640 627.956787,928.114563 
	C626.616150,927.303223 625.338745,925.094299 625.353088,923.546326 
	C625.448792,913.274841 618.942017,908.251099 608.791626,911.254395 
	C605.940674,912.097961 603.281799,913.571350 600.491577,914.643372 
	C593.590088,917.295166 589.004456,915.748840 586.287048,909.935364 
	C583.202637,903.336731 585.056152,895.075073 590.776855,892.384094 
	C593.651794,891.031799 597.161011,890.455383 600.362671,890.522095 
	C603.960876,890.597107 607.535767,891.793030 611.524658,892.605774 
z"/>
<path fill="var(--logo-highlight)" opacity="1.000000" stroke="none" 
	d="
M574.269165,514.456604 
	C577.639587,511.962372 580.821472,509.806793 583.749939,507.349304 
	C586.188782,505.302673 588.293579,505.847778 589.516724,508.209076 
	C590.931274,510.939880 592.318237,514.033630 592.425476,517.016235 
	C592.615479,522.300781 592.106079,527.658875 591.375427,532.914734 
	C590.633728,538.250488 591.124634,543.083740 593.986755,547.796448 
	C594.692444,548.958496 594.343933,551.667053 593.416687,552.773376 
	C584.770020,563.090210 559.767883,568.867188 547.479980,563.286011 
	C544.921387,562.123840 542.560852,559.813904 540.918579,557.466492 
	C532.927246,546.043762 525.153564,543.002380 511.751740,546.942200 
	C507.520416,548.186157 503.548706,549.301697 500.489288,545.067322 
	C497.208832,540.526978 495.666534,535.482727 497.894897,530.021973 
	C499.722687,525.542725 504.621216,523.721375 510.189575,525.084839 
	C521.181519,527.776306 521.181458,527.776306 522.619507,516.514954 
	C523.250366,511.574677 524.759521,510.773438 529.214294,513.076782 
	C530.543762,513.764160 531.884705,514.473145 533.089172,515.351990 
	C546.900574,525.429565 560.488464,523.468811 574.269165,514.456604 
z"/>
<path fill="var(--logo-highlight)" opacity="1.000000" stroke="none" 
	d="
M1149.362427,739.046448 
	C1162.150269,738.924255 1174.475464,738.851868 1186.799561,738.930664 
	C1189.777100,738.949768 1192.788574,739.264832 1195.720459,739.796448 
	C1204.863647,741.454285 1212.138550,745.848145 1214.691528,755.289368 
	C1217.315918,764.994568 1215.712524,773.825378 1206.676758,780.572021 
	C1214.600220,784.837341 1218.876221,791.203369 1219.383057,800.080139 
	C1220.212646,814.612732 1213.011108,824.407349 1198.025146,825.444580 
	C1181.656860,826.577454 1165.149780,825.702026 1148.414917,825.702026 
	C1148.322388,824.593079 1148.148193,823.474304 1148.147583,822.355469 
	C1148.133057,796.040222 1148.125610,769.724976 1148.170776,743.409790 
	C1148.173218,741.990051 1148.645630,740.571106 1149.362427,739.046448 
M1163.817383,815.094604 
	C1173.309570,815.051025 1182.809082,815.222900 1192.291748,814.900879 
	C1201.026245,814.604126 1205.868286,810.087158 1206.442871,802.468872 
	C1207.044434,794.494751 1202.881836,788.386963 1194.286011,787.667236 
	C1183.455078,786.760376 1172.490601,787.448608 1161.276001,787.448608 
	C1161.276001,796.033386 1161.237793,804.496033 1161.345459,812.956848 
	C1161.354492,813.666626 1162.344482,814.364014 1163.817383,815.094604 
M1202.348267,767.475037 
	C1204.262451,758.013306 1200.537354,751.610046 1191.072388,750.745117 
	C1181.383423,749.859619 1171.550537,750.548950 1161.520264,750.548950 
	C1161.520264,758.937805 1161.520264,767.327942 1161.520264,775.866943 
	C1171.462891,775.866943 1181.109497,776.136597 1190.730591,775.755554 
	C1195.698120,775.558838 1200.168457,773.533386 1202.348267,767.475037 
z"/>
<path fill="var(--logo-highlight)" opacity="1.000000" stroke="none" 
	d="
M554.204041,463.593872 
	C557.891296,461.601959 561.301147,459.889557 564.488525,457.832397 
	C570.095703,454.213562 574.879944,454.120758 578.011780,457.853973 
	C580.926758,461.328674 581.334045,471.346344 578.067078,474.250305 
	C570.798828,480.710999 569.639954,488.109375 573.144409,496.833771 
	C573.523438,497.777252 572.615723,500.033905 571.664185,500.595123 
	C558.987427,508.071655 545.292908,509.816376 531.212769,506.131317 
	C527.589355,505.182983 523.649414,502.135010 521.642456,498.931610 
	C515.283630,488.782135 507.110626,483.631348 494.924377,486.171936 
	C493.310852,486.508362 491.603119,486.371429 489.944672,486.517822 
	C485.717987,486.890930 483.340820,484.837921 482.470825,480.839966 
	C482.188354,479.541840 481.976898,478.218445 481.861206,476.895416 
	C480.769257,464.408234 485.640350,460.808685 497.035980,465.651520 
	C498.261383,466.172272 499.476349,466.741516 500.743774,467.134918 
	C505.469574,468.601807 507.191772,467.472626 507.827606,462.581848 
	C509.144867,452.449677 509.210876,452.358765 517.471558,458.357941 
	C528.694519,466.508484 540.719116,468.637604 554.204041,463.593872 
z"/>
<path fill="var(--logo-highlight)" opacity="1.000000" stroke="none" 
	d="
M533.309204,453.071289 
	C526.957886,451.535858 520.844666,450.483765 515.170715,448.293610 
	C512.193237,447.144318 509.146179,444.471863 507.577637,441.675507 
	C501.354340,430.580719 492.592041,425.073425 479.669861,427.029358 
	C478.604431,427.190643 477.267365,427.037445 476.360413,426.508911 
	C472.441406,424.224854 470.199890,413.797943 472.342468,408.472717 
	C474.107117,404.086823 477.396759,402.778412 484.172577,404.145813 
	C486.585236,404.632721 488.951019,405.561066 491.203522,406.584351 
	C494.780334,408.209229 496.565674,406.854919 497.274963,403.353394 
	C497.848938,400.519928 498.356964,397.673096 499.140503,393.530029 
	C501.924103,395.889618 503.749115,397.206879 505.303101,398.790161 
	C518.360779,412.093811 533.146851,414.508301 549.761780,405.975769 
	C550.649597,405.519806 551.528015,405.044373 552.425781,404.608795 
	C558.613586,401.606415 562.227966,401.955719 565.481445,405.858887 
	C568.738770,409.766663 568.719299,416.910919 565.348511,421.195251 
	C564.325562,422.495483 563.124756,423.673492 561.904114,424.797485 
	C556.545227,429.732208 555.633789,435.707611 558.490479,442.062195 
	C559.901428,445.200928 559.211060,447.046631 556.357544,447.791931 
	C548.865479,449.748749 541.278687,451.343262 533.309204,453.071289 
z"/>
<path fill="var(--logo-highlight)" opacity="1.000000" stroke="none" 
	d="
M1443.229492,811.826172 
	C1431.086670,796.016174 1419.161377,780.487122 1406.268921,763.698669 
	C1406.268921,785.313293 1406.268921,805.356323 1406.268921,825.759338 
	C1401.673340,825.759338 1397.622314,825.759338 1393.232666,825.759338 
	C1393.232666,797.009949 1393.232666,768.302734 1393.232666,739.573425 
	C1399.939697,737.925415 1404.675171,739.245728 1409.015259,745.271423 
	C1421.570679,762.703308 1434.882080,779.590820 1447.906494,796.684509 
	C1448.866577,797.944641 1449.905762,799.144409 1451.881348,801.564148 
	C1451.881348,779.942810 1451.881348,759.772766 1451.881348,739.328247 
	C1456.442749,739.328247 1460.362793,739.328247 1464.666504,739.328247 
	C1464.666504,768.111267 1464.666504,796.813843 1464.666504,825.682129 
	C1458.400146,826.863159 1452.890991,826.826965 1449.438965,820.085205 
	C1447.945312,817.167969 1445.474243,814.751160 1443.229492,811.826172 
z"/>
<path fill="var(--logo-highlight)" opacity="1.000000" stroke="none" 
	d="
M999.819397,700.208862 
	C978.348877,699.957031 964.620789,690.904602 957.849487,672.827271 
	C950.732422,653.826965 955.310425,633.661926 969.705200,620.605530 
	C981.555298,609.857239 1002.502563,607.012390 1017.091248,614.169861 
	C1033.581055,622.260132 1043.153931,638.899414 1041.532959,657.501892 
	C1041.061523,662.913330 1040.097656,668.491211 1038.152710,673.526611 
	C1031.524170,690.686401 1018.636719,699.470825 999.819397,700.208862 
M1027.964233,649.040161 
	C1024.633057,633.626343 1015.108826,623.974121 1001.917297,622.643250 
	C981.319214,620.565002 966.249634,636.764282 968.062805,659.035461 
	C969.421387,675.721985 980.416138,687.235046 996.019226,688.309753 
	C1011.541260,689.378906 1024.263428,679.922668 1027.478760,664.323425 
	C1028.434692,659.685608 1027.904785,654.741577 1027.964233,649.040161 
z"/>
<path fill="var(--logo-highlight)" opacity="1.000000" stroke="none" 
	d="
M1259.548828,619.455200 
	C1273.777588,634.952454 1270.689331,655.647583 1251.792847,670.259338 
	C1257.622803,679.556763 1263.495239,688.921692 1269.395386,698.331116 
	C1260.847778,701.250610 1256.569458,699.837402 1252.016479,692.685120 
	C1248.354614,686.932861 1244.918945,681.023621 1240.983887,675.466553 
	C1239.870117,673.893738 1237.399536,672.528748 1235.474854,672.419922 
	C1228.895630,672.047913 1222.282471,672.277405 1215.301025,672.277405 
	C1215.301025,681.539001 1215.301025,690.131653 1215.301025,699.041992 
	C1210.855957,699.041992 1206.799316,699.041992 1202.379395,699.041992 
	C1202.379395,669.968323 1202.379395,640.956360 1202.379395,612.259277 
	C1216.634155,612.259277 1230.915771,611.681091 1245.103882,612.578369 
	C1249.954346,612.885132 1254.570801,616.893311 1259.548828,619.455200 
M1215.271240,627.710327 
	C1215.271240,638.641418 1215.271240,649.572510 1215.271240,660.881470 
	C1222.681519,660.881470 1229.477173,661.003479 1236.266724,660.854248 
	C1247.931641,660.598022 1255.115112,653.772888 1255.424316,642.873230 
	C1255.756348,631.171448 1249.025391,623.706909 1237.099854,623.012939 
	C1230.958618,622.655640 1224.776733,623.044189 1218.625122,622.798584 
	C1215.420410,622.670593 1215.014893,624.280212 1215.271240,627.710327 
z"/>
<path fill="var(--logo-highlight)" opacity="1.000000" stroke="none" 
	d="
M891.995239,811.085083 
	C888.079224,801.086304 881.196411,797.265198 870.908569,799.118469 
	C867.858276,799.667969 864.625305,799.203247 860.962097,799.203247 
	C860.962097,803.788452 860.962097,808.079956 860.962097,812.371460 
	C860.962097,816.685120 860.962097,820.998840 860.962097,825.704590 
	C856.519714,825.704590 852.303345,825.704590 847.766907,825.704590 
	C847.766907,796.995483 847.766907,768.259949 847.766907,738.321106 
	C862.786865,738.949829 877.772034,738.652954 892.492432,740.484314 
	C904.370056,741.962036 912.186584,751.714294 913.858154,763.279114 
	C915.865295,777.165344 910.795044,788.857849 900.062012,795.086304 
	C899.210938,795.580139 898.347778,796.053223 897.009460,796.806458 
	C903.087585,806.393921 909.076294,815.840454 915.563721,826.073669 
	C910.915833,826.073669 907.148804,826.273315 903.425537,825.957153 
	C902.244507,825.856812 900.881836,824.590271 900.116150,823.497437 
	C897.349548,819.548401 894.801819,815.446045 891.995239,811.085083 
M882.970703,787.770325 
	C884.442932,787.502869 885.934448,787.313293 887.384277,786.955078 
	C895.911438,784.848633 900.860107,778.268860 900.948425,768.985107 
	C901.034973,759.889771 896.494751,752.893616 887.758118,751.543762 
	C879.013245,750.192749 870.004456,750.550415 861.215820,750.163696 
	C861.215820,763.335815 861.215820,775.544373 861.215820,787.825745 
	C868.439270,787.825745 875.252075,787.825745 882.970703,787.770325 
z"/>
<path fill="var(--logo-highlight)" opacity="1.000000" stroke="none" 
	d="
M1013.990967,779.183716 
	C1014.656616,802.762024 1003.524353,819.585449 983.792297,825.340454 
	C963.081909,831.380737 942.087585,823.357788 932.446411,805.718567 
	C922.064453,786.724060 926.256531,761.117676 941.969116,747.551819 
	C966.759033,726.148804 1006.257690,739.911682 1012.954224,772.299622 
	C1013.391724,774.415710 1013.629150,776.573181 1013.990967,779.183716 
M941.010010,773.851807 
	C940.785339,775.163269 940.526367,776.469971 940.341125,777.786987 
	C937.806580,795.807373 949.227966,812.599792 965.656006,815.020691 
	C983.416809,817.637878 997.723389,806.674316 1000.620544,788.226379 
	C1003.151917,772.107544 995.587524,757.264221 982.176331,752.034546 
	C964.366516,745.089417 947.138733,753.912598 941.010010,773.851807 
z"/>
<path fill="var(--logo-highlight)" opacity="1.000000" stroke="none" 
	d="
M660.355652,953.845520 
	C661.140808,953.889771 661.473145,953.912659 661.805847,953.927185 
	C671.753418,954.362305 672.571838,955.733215 668.199158,965.078613 
	C663.411865,975.310242 658.692139,985.580566 653.544556,995.629944 
	C652.672424,997.332458 649.552612,999.272339 647.877380,998.955505 
	C634.294189,996.386230 622.708862,989.699036 612.635864,980.364502 
	C611.964417,979.742310 611.899353,978.004456 612.149475,976.923706 
	C613.843750,969.603333 610.526367,964.623047 603.055054,964.232788 
	C598.933594,964.017578 594.751709,964.529053 590.624390,964.968567 
	C586.043945,965.456299 582.366333,964.301819 580.108398,960.048889 
	C577.405762,954.958191 577.738098,948.036743 580.986267,944.441284 
	C584.278076,940.797302 588.302246,940.398682 592.858521,941.874268 
	C596.801941,943.151245 600.887451,943.984863 604.897461,945.061707 
	C609.652710,946.338684 612.397339,944.662231 613.860657,939.864075 
	C616.120972,932.452393 616.846436,932.181824 622.454651,937.506653 
	C633.013733,947.532288 645.057617,953.801697 660.355652,953.845520 
z"/>
<path fill="var(--logo-highlight)" opacity="1.000000" stroke="none" 
	d="
M502.791687,387.206421 
	C501.242798,384.630280 499.869598,382.353394 498.605011,380.017670 
	C493.798218,371.139557 486.373993,366.900848 476.372833,368.363342 
	C471.718109,369.043976 469.773193,367.257233 469.233368,363.191406 
	C468.864471,360.413055 468.555511,357.518341 468.927368,354.771393 
	C469.866669,347.833405 474.458496,345.105042 481.049194,347.383179 
	C483.869080,348.357849 486.563812,349.701324 489.296906,350.918732 
	C492.299225,352.256104 494.089325,351.254059 494.789642,348.132111 
	C495.431763,345.269592 496.028320,342.396851 496.872131,338.471832 
	C499.234924,340.562469 500.988556,341.924255 502.521820,343.500488 
	C516.173767,357.535248 530.318176,360.566040 548.355103,353.204010 
	C552.316406,351.587128 556.275330,350.079407 559.998718,353.513397 
	C562.502869,355.822998 563.671509,364.442657 561.641602,367.758026 
	C560.611816,369.439911 558.642029,370.864197 556.779114,371.663605 
	C548.156128,375.363708 545.009094,380.181061 546.758911,389.087524 
	C547.530640,393.015625 546.318848,394.595947 542.803955,395.457642 
	C528.279724,399.018219 514.752747,397.754578 502.791687,387.206421 
z"/>
<path fill="var(--logo-highlight)" opacity="1.000000" stroke="none" 
	d="
M1162.995850,648.381958 
	C1168.464233,648.381470 1173.433838,648.381470 1178.706665,648.381470 
	C1178.706665,652.183838 1178.706665,655.603821 1178.706665,659.517639 
	C1165.743652,659.517639 1152.683716,659.517639 1139.238403,659.517639 
	C1139.238403,669.205688 1139.238403,678.410583 1139.238403,687.942627 
	C1154.632568,687.942627 1169.920044,687.942627 1185.820435,687.942627 
	C1185.563843,691.850098 1185.330688,695.398499 1185.084229,699.150818 
	C1165.219727,699.150818 1145.800537,699.150818 1126.083008,699.150818 
	C1126.083008,670.000549 1126.083008,640.944397 1126.083008,611.624573 
	C1145.302002,611.624573 1164.392944,611.624573 1184.345337,611.624573 
	C1184.052979,615.263000 1183.758789,618.925659 1183.443970,622.844971 
	C1168.437866,622.844971 1153.998291,622.844971 1139.220459,622.844971 
	C1139.220459,631.358215 1139.220459,639.584656 1139.220459,648.382507 
	C1146.996338,648.382507 1154.746704,648.382507 1162.995850,648.381958 
z"/>
<path fill="var(--logo-highlight)" opacity="1.000000" stroke="none" 
	d="
M549.601685,301.598236 
	C555.305725,299.802246 557.647705,303.352753 559.603027,307.178772 
	C561.789795,311.457581 561.135315,318.709747 558.405884,320.818756 
	C557.459106,321.550262 555.915466,322.026276 554.745483,321.868622 
	C546.672363,320.780762 541.710083,329.308228 541.582092,335.747437 
	C541.459717,341.900421 539.687439,343.989960 533.399475,344.104279 
	C522.804260,344.296967 512.913757,341.403625 504.517822,334.847870 
	C502.253448,333.079803 500.782806,329.798798 499.843872,326.920044 
	C496.669556,317.187653 490.613037,312.303619 480.515656,312.047180 
	C476.563690,311.946777 472.745178,311.662903 471.013336,307.238312 
	C469.440613,303.220215 470.663086,295.378723 474.076538,293.400299 
	C476.471130,292.012451 479.890533,292.349731 482.865295,292.042847 
	C483.447845,291.982727 484.096497,292.487915 484.704041,292.756531 
	C495.319244,297.449799 495.318878,297.450623 501.168915,286.503357 
	C514.105591,301.530853 528.980957,310.742157 549.601685,301.598236 
z"/>
<path fill="var(--logo-highlight)" opacity="1.000000" stroke="none" 
	d="
M1518.999634,677.655762 
	C1513.168091,677.655823 1507.828613,677.829834 1502.507935,677.588745 
	C1499.398682,677.447876 1497.645874,678.299500 1496.612305,681.422241 
	C1495.150757,685.838257 1492.825195,689.980591 1491.510498,694.429443 
	C1490.338867,698.394104 1488.232666,699.757812 1484.276489,699.256897 
	C1481.878540,698.953186 1479.410767,699.200928 1476.255005,699.200928 
	C1479.005859,692.357605 1481.439697,686.222168 1483.934570,680.111633 
	C1492.746216,658.530762 1501.641235,636.983459 1510.334229,615.354919 
	C1511.592529,612.224548 1513.199585,611.072510 1516.589600,611.205383 
	C1527.417847,611.629578 1524.664795,609.421143 1528.730591,619.133484 
	C1539.534424,644.942566 1550.126831,670.840149 1560.790405,696.707886 
	C1561.030640,697.290466 1561.116211,697.936829 1561.468872,699.315857 
	C1557.544434,699.315857 1553.933228,699.567566 1550.392090,699.179382 
	C1549.151245,699.043518 1547.606812,697.557312 1547.019775,696.304199 
	C1544.690674,691.331299 1542.542358,686.260193 1540.619751,681.116028 
	C1539.652954,678.529358 1538.298950,677.517212 1535.491821,677.627930 
	C1530.168945,677.837769 1524.831177,677.667603 1518.999634,677.655762 
M1513.009766,640.471313 
	C1509.730957,648.915466 1506.452148,657.359558 1502.997681,666.256104 
	C1513.814575,666.256104 1523.921143,666.256104 1534.798950,666.256104 
	C1529.457031,652.734192 1524.362793,639.838989 1518.739868,625.605774 
	C1516.493408,631.399475 1514.876587,635.569031 1513.009766,640.471313 
z"/>
<path fill="var(--logo-highlight)" opacity="1.000000" stroke="none" 
	d="
M1384.163818,682.980835 
	C1384.163940,688.606995 1384.163940,693.732422 1384.163940,699.072266 
	C1379.651733,699.072266 1375.581787,699.072266 1371.307129,699.072266 
	C1371.307129,669.895081 1371.307129,640.983337 1371.307129,611.783203 
	C1372.480225,611.612488 1373.584106,611.315186 1374.688599,611.312195 
	C1385.171875,611.283997 1395.657471,611.167847 1406.137939,611.341370 
	C1429.033813,611.720276 1442.140015,629.181580 1436.266968,651.304565 
	C1433.038086,663.468079 1423.144165,670.900085 1408.112183,671.790466 
	C1400.363892,672.249451 1392.565918,671.871094 1384.163696,671.871094 
	C1384.163696,675.942444 1384.163696,679.211243 1384.163818,682.980835 
M1414.070190,658.880066 
	C1422.492920,654.294678 1425.614990,647.869507 1424.134766,638.167786 
	C1422.886597,629.986694 1417.922119,624.540527 1408.797607,623.560242 
	C1400.823364,622.703491 1392.684326,623.381531 1384.475342,623.381531 
	C1384.475342,635.789551 1384.475342,648.016052 1384.475342,661.483032 
	C1394.322266,660.691406 1403.831421,659.926941 1414.070190,658.880066 
z"/>
<path fill="var(--logo-highlight)" opacity="1.000000" stroke="none" 
	d="
M1309.749023,614.561035 
	C1310.873779,610.055420 1314.260132,611.712708 1316.822754,611.262939 
	C1322.466431,610.272400 1325.160156,612.611023 1327.300781,618.014221 
	C1337.463989,643.668579 1348.153564,669.114319 1358.638306,694.641479 
	C1359.181519,695.963989 1359.566162,697.351685 1360.222778,699.295898 
	C1356.247803,699.295898 1352.776001,699.552002 1349.378906,699.160400 
	C1348.150879,699.018860 1346.623779,697.544250 1346.054565,696.301697 
	C1343.702271,691.166260 1341.846313,685.799011 1339.391968,680.717773 
	C1338.727661,679.342346 1336.621094,677.841064 1335.146606,677.809875 
	C1323.665771,677.566895 1312.174805,677.544006 1300.695312,677.811035 
	C1299.124512,677.847656 1296.931396,679.524719 1296.179077,681.021606 
	C1293.946533,685.463501 1292.057251,690.117432 1290.486938,694.839233 
	C1289.374268,698.185120 1287.738037,699.758118 1284.070435,699.327148 
	C1281.322266,699.004150 1278.505615,699.263367 1275.034058,699.263367 
	C1286.722412,670.740845 1298.159790,642.830750 1309.749023,614.561035 
M1316.126953,629.714722 
	C1311.419067,641.848877 1306.711304,653.983093 1301.970947,666.201233 
	C1312.817993,666.201233 1322.967407,666.201233 1333.580811,666.201233 
	C1328.261963,652.734680 1323.166870,639.834656 1317.779785,626.195496 
	C1316.975464,627.817749 1316.681763,628.410034 1316.126953,629.714722 
z"/>
<path fill="var(--logo-highlight)" opacity="1.000000" stroke="none" 
	d="
M1312.940674,783.774658 
	C1318.634399,770.058472 1324.309204,756.747253 1329.688110,743.317566 
	C1330.979492,740.093445 1332.451782,738.689514 1336.141479,738.810974 
	C1344.779297,739.095215 1344.849365,738.847839 1348.217163,746.840027 
	C1358.938965,772.283447 1369.610840,797.747986 1380.295044,823.207214 
	C1380.602051,823.939209 1380.832642,824.703247 1381.085449,825.414490 
	C1380.633667,825.713623 1380.381226,826.025024 1380.118530,826.033936 
	C1368.062378,826.445923 1368.062378,826.442810 1363.485352,815.257874 
	C1359.203613,804.794128 1359.203613,804.798035 1347.710205,804.808228 
	C1338.883423,804.816040 1330.054443,804.926147 1321.231323,804.747986 
	C1318.418579,804.691284 1317.077148,805.651367 1316.168823,808.267090 
	C1314.588379,812.817749 1312.406128,817.163818 1310.907593,821.737061 
	C1309.800293,825.116760 1308.085083,826.602661 1304.437134,826.161987 
	C1301.701050,825.831543 1298.893188,826.096680 1295.387451,826.096680 
	C1301.388794,811.645386 1307.100952,797.890747 1312.940674,783.774658 
M1353.134644,789.662720 
	C1348.348145,777.696533 1343.561646,765.730347 1338.359375,752.724548 
	C1332.794678,766.836426 1327.609863,779.985229 1322.244141,793.592773 
	C1333.377930,793.592773 1343.676880,793.592773 1354.378540,793.592773 
	C1353.979370,792.269104 1353.703369,791.354187 1353.134644,789.662720 
z"/>
<path fill="var(--logo-highlight)" opacity="1.000000" stroke="none" 
	d="
M896.974182,696.960205 
	C881.670654,702.640625 867.262817,701.070068 853.179382,693.988037 
	C848.548401,691.659302 846.525269,688.843994 849.602051,683.886169 
	C850.450745,682.518616 850.797241,680.839355 851.597717,678.707825 
	C860.179871,686.263733 870.022644,689.146301 880.861084,688.674194 
	C883.826050,688.545044 886.867310,688.135925 889.691711,687.265259 
	C894.532104,685.773254 897.567139,682.486633 898.009644,677.175903 
	C898.455322,671.828552 896.031494,668.093933 891.310852,666.045532 
	C887.513977,664.397949 883.492615,663.253357 879.538940,661.984985 
	C873.997986,660.207214 868.290466,658.868286 862.894348,656.734253 
	C843.568909,649.091492 846.341492,625.192627 858.800171,616.445679 
	C871.160522,607.767700 894.985596,608.339966 907.094421,618.310242 
	C905.777100,621.859253 904.415222,625.528259 902.873657,629.681274 
	C894.520447,622.762573 885.294434,620.902527 875.362793,622.636292 
	C872.493286,623.137207 869.466064,624.189026 867.096741,625.832520 
	C859.481323,631.114746 860.394836,641.311035 868.846924,644.977112 
	C873.550781,647.017517 878.630310,648.194275 883.545715,649.743896 
	C887.196716,650.894897 890.927368,651.832153 894.497437,653.192932 
	C903.407959,656.589294 910.321106,661.813232 910.934692,672.379028 
	C911.575439,683.412842 907.644592,691.892578 896.974182,696.960205 
z"/>
<path fill="var(--logo-highlight)" opacity="1.000000" stroke="none" 
	d="
M495.685059,240.369812 
	C496.175995,240.613510 496.323975,240.689743 496.469177,240.770844 
	C505.304657,245.705002 505.304626,245.705048 510.740448,236.725204 
	C513.227173,238.649734 515.854431,240.320251 518.045044,242.441635 
	C527.147156,251.255936 537.511658,255.555740 550.301208,252.299576 
	C552.195129,251.817398 554.305603,251.740219 556.249146,251.991730 
	C560.368164,252.524750 563.061279,254.706284 562.747864,259.254608 
	C562.577271,261.730469 562.628052,264.463898 561.561035,266.563934 
	C560.597351,268.460602 558.435486,270.617065 556.479431,270.996643 
	C545.708435,273.086670 542.259705,276.346130 541.838379,286.916290 
	C541.698792,290.417969 540.205872,291.714722 537.176758,292.007965 
	C526.229431,293.067657 516.277710,290.270599 507.970306,283.149567 
	C505.791626,281.281982 504.442871,277.521912 504.188660,274.506561 
	C503.422729,265.421204 499.223541,260.513733 490.226074,259.190979 
	C486.832367,258.692017 482.196167,260.150421 480.956146,255.310959 
	C479.700806,250.411743 479.467072,245.128647 483.214142,241.109787 
	C486.698395,237.372818 491.157501,238.798294 495.685059,240.369812 
z"/>
<path fill="var(--logo-highlight)" opacity="1.000000" stroke="none" 
	d="
M1495.153564,779.130127 
	C1494.786011,797.215393 1503.362915,810.747986 1517.703613,814.342712 
	C1530.123901,817.455933 1541.103638,814.588501 1550.082397,804.375671 
	C1552.909790,807.332336 1555.501343,810.042419 1558.038452,812.695618 
	C1547.990967,828.287109 1525.546143,829.339417 1510.236694,824.856995 
	C1492.771729,819.743469 1481.468628,802.060364 1481.775391,781.230530 
	C1482.074463,760.920959 1494.224487,744.515625 1512.733276,739.430054 
	C1531.071289,734.391479 1549.758057,739.523743 1557.074585,751.301514 
	C1554.493286,754.180664 1551.981323,756.982483 1549.318970,759.951843 
	C1539.055664,749.613220 1527.211182,747.113831 1514.200317,752.144531 
	C1502.322388,756.737244 1496.508057,766.218201 1495.153564,779.130127 
z"/>
<path fill="var(--logo-highlight)" opacity="1.000000" stroke="none" 
	d="
M1041.192627,769.652222 
	C1038.245239,779.652283 1038.426880,789.080994 1042.816284,798.247070 
	C1053.116699,819.756409 1081.269409,820.061707 1093.782227,804.680847 
	C1096.520020,807.563171 1099.214844,810.400208 1101.889160,813.215759 
	C1087.794067,830.767090 1056.025269,832.070679 1039.346558,815.969727 
	C1020.721375,797.989868 1021.362305,764.685669 1040.655396,747.968323 
	C1058.333252,732.650391 1088.691772,734.399536 1101.365723,751.686218 
	C1098.695312,754.296021 1095.993286,756.936829 1093.010254,759.852173 
	C1085.308838,751.309937 1075.601807,748.468079 1064.541992,750.315308 
	C1053.279297,752.196472 1045.580322,758.685486 1041.192627,769.652222 
z"/>
<path fill="var(--logo-highlight)" opacity="1.000000" stroke="none" 
	d="
M744.674561,697.218628 
	C744.656860,668.516418 744.656860,640.249756 744.656860,611.659241 
	C764.508972,611.659241 784.036926,611.659241 804.081177,611.659241 
	C803.738892,615.391663 803.425964,618.804077 803.060669,622.787659 
	C787.960754,622.787659 773.105896,622.787659 758.032593,622.787659 
	C758.032593,632.782166 758.032593,642.178955 758.032593,651.969971 
	C771.586304,651.969971 784.860840,651.969971 798.407837,651.969971 
	C798.407837,655.786865 798.407837,659.212524 798.407837,663.302185 
	C789.070190,663.302185 779.799927,663.307800 770.529602,663.300781 
	C757.748962,663.291138 757.749634,663.287109 757.752380,676.164734 
	C757.753906,683.643555 757.752686,691.122375 757.752686,700.015198 
	C753.093018,699.172852 748.892639,698.413513 744.674561,697.218628 
z"/>
<path fill="var(--logo-highlight)" opacity="1.000000" stroke="none" 
	d="
M1073.646973,665.999512 
	C1073.646606,651.531128 1073.646606,637.562744 1073.646606,623.064819 
	C1064.231689,623.064819 1055.170410,623.064819 1045.864258,623.064819 
	C1045.864258,618.962097 1045.864258,615.392456 1045.864258,611.591003 
	C1068.532227,611.591003 1090.933228,611.591003 1113.640991,611.591003 
	C1113.640991,615.333862 1113.640991,618.877258 1113.640991,622.822632 
	C1104.894287,622.822632 1096.302734,622.822632 1087.008789,622.822632 
	C1087.008789,648.389648 1087.008789,673.575684 1087.008789,699.046021 
	C1082.365356,699.046021 1078.422119,699.046021 1073.647217,699.046021 
	C1073.647217,688.302917 1073.647217,677.401184 1073.646973,665.999512 
z"/>
<path fill="var(--logo-highlight)" opacity="1.000000" stroke="none" 
	d="
M1291.939697,815.678467 
	C1292.106934,818.759766 1292.128784,821.425720 1292.118530,824.091492 
	C1292.116699,824.574158 1291.983154,825.056274 1291.865723,825.835327 
	C1273.614014,825.835327 1255.371338,825.835327 1236.743896,825.835327 
	C1236.743896,797.100830 1236.743896,768.399048 1236.743896,739.397095 
	C1240.792236,739.397095 1244.718628,739.397095 1249.294922,739.397095 
	C1249.294922,764.399353 1249.294922,789.440857 1249.294922,815.263000 
	C1263.885254,815.263000 1277.834473,815.263000 1291.939697,815.678467 
z"/>
<path fill="var(--logo-highlight)" opacity="1.000000" stroke="none" 
	d="
M557.106750,138.792938 
	C555.868042,138.181473 555.012817,137.549515 554.065369,137.345062 
	C547.840820,136.001740 543.103821,133.934372 544.467285,125.787270 
	C544.781494,123.909821 541.505615,120.967651 539.297302,119.280685 
	C537.572693,117.963181 534.961487,117.756302 532.711243,117.186287 
	C526.672791,115.656715 525.490051,114.054665 526.924377,109.144745 
	C528.717529,103.006516 531.734802,101.040535 537.002197,103.239098 
	C544.471863,106.356827 550.650513,106.128036 555.717102,98.742592 
	C558.882446,94.128433 563.756836,94.087456 568.757874,95.889175 
	C573.725098,97.678696 576.527649,101.030022 576.236206,106.378403 
	C575.960999,111.431503 577.660217,114.824875 582.468689,117.077660 
	C586.821838,119.117134 588.579712,125.525719 586.068298,129.554871 
	C585.261597,130.849136 582.928711,131.705963 581.236389,131.808044 
	C578.975586,131.944351 576.658691,131.149918 574.365845,130.755447 
	C570.286621,130.053680 567.758057,131.824692 566.167664,135.550949 
	C563.540405,141.706314 563.463196,141.673355 557.106750,138.792938 
z"/>
<path fill="var(--logo-highlight)" opacity="1.000000" stroke="none" 
	d="
M830.926392,698.838379 
	C826.783325,699.087585 822.983032,699.087585 818.791443,699.087585 
	C818.791443,669.943054 818.791443,640.942749 818.791443,611.645508 
	C822.977478,611.645508 827.037598,611.645508 831.434937,611.645508 
	C831.525818,613.510681 831.673218,615.123108 831.672607,616.735535 
	C831.663574,642.704895 831.640625,668.674255 831.597656,694.643616 
	C831.595459,695.958984 831.383423,697.273926 830.926392,698.838379 
z"/>
<path fill="var(--logo-highlight)" opacity="1.000000" stroke="none" 
	d="
M1452.810913,676.999146 
	C1452.811035,655.047424 1452.811035,633.595764 1452.811035,611.738159 
	C1457.130859,611.738159 1461.176758,611.738159 1465.630127,611.738159 
	C1465.630127,640.739868 1465.630127,669.758240 1465.630127,699.045715 
	C1461.528564,699.045715 1457.446533,699.045715 1452.810791,699.045715 
	C1452.810791,691.721985 1452.810791,684.610596 1452.810913,676.999146 
z"/>
<path fill="var(--logo-highlight)" opacity="1.000000" stroke="none" 
	d="
M938.843262,612.532043 
	C938.954529,641.561401 938.954529,670.145142 938.954529,699.016479 
	C934.543152,699.016479 930.454346,699.016479 926.056702,699.016479 
	C926.056702,669.933411 926.056702,640.923218 926.056702,611.124878 
	C930.363586,611.451599 934.547791,611.768982 938.843262,612.532043 
z"/>
<path fill="var(--logo-brand)" opacity="1.000000" stroke="none" 
	d="
M254.986038,446.639221 
	C254.536957,447.139252 253.940552,447.333679 253.157196,447.785889 
	C250.687683,445.091797 248.405136,442.139893 246.122574,439.187988 
	C246.542252,438.797211 246.961929,438.406433 247.381607,438.015656 
	C249.867310,440.788300 252.352997,443.560974 254.986038,446.639221 
z"/>
<path fill="var(--logo-ink)" opacity="1.000000" stroke="none" 
	d="
M1163.348145,815.080872 
	C1162.344482,814.364014 1161.354492,813.666626 1161.345459,812.956848 
	C1161.237793,804.496033 1161.276001,796.033386 1161.276001,787.448608 
	C1172.490601,787.448608 1183.455078,786.760376 1194.286011,787.667236 
	C1202.881836,788.386963 1207.044434,794.494751 1206.442871,802.468872 
	C1205.868286,810.087158 1201.026245,814.604126 1192.291748,814.900879 
	C1182.809082,815.222900 1173.309570,815.051025 1163.348145,815.080872 
z"/>
<path fill="var(--logo-ink)" opacity="1.000000" stroke="none" 
	d="
M1202.230347,767.854370 
	C1200.168457,773.533386 1195.698120,775.558838 1190.730591,775.755554 
	C1181.109497,776.136597 1171.462891,775.866943 1161.520264,775.866943 
	C1161.520264,767.327942 1161.520264,758.937805 1161.520264,750.548950 
	C1171.550537,750.548950 1181.383423,749.859619 1191.072388,750.745117 
	C1200.537354,751.610046 1204.262451,758.013306 1202.230347,767.854370 
z"/>
<path fill="var(--logo-ink)" opacity="1.000000" stroke="none" 
	d="
M1028.010010,649.489014 
	C1027.904785,654.741577 1028.434692,659.685608 1027.478760,664.323425 
	C1024.263428,679.922668 1011.541260,689.378906 996.019226,688.309753 
	C980.416138,687.235046 969.421387,675.721985 968.062805,659.035461 
	C966.249634,636.764282 981.319214,620.565002 1001.917297,622.643250 
	C1015.108826,623.974121 1024.633057,633.626343 1028.010010,649.489014 
z"/>
<path fill="var(--logo-ink)" opacity="1.000000" stroke="none" 
	d="
M1215.271973,627.235596 
	C1215.014893,624.280212 1215.420410,622.670593 1218.625122,622.798584 
	C1224.776733,623.044189 1230.958618,622.655640 1237.099854,623.012939 
	C1249.025391,623.706909 1255.756348,631.171448 1255.424316,642.873230 
	C1255.115112,653.772888 1247.931641,660.598022 1236.266724,660.854248 
	C1229.477173,661.003479 1222.681519,660.881470 1215.271240,660.881470 
	C1215.271240,649.572510 1215.271240,638.641418 1215.271973,627.235596 
z"/>
<path fill="var(--logo-ink)" opacity="1.000000" stroke="none" 
	d="
M882.517822,787.798035 
	C875.252075,787.825745 868.439270,787.825745 861.215820,787.825745 
	C861.215820,775.544373 861.215820,763.335815 861.215820,750.163696 
	C870.004456,750.550415 879.013245,750.192749 887.758118,751.543762 
	C896.494751,752.893616 901.034973,759.889771 900.948425,768.985107 
	C900.860107,778.268860 895.911438,784.848633 887.384277,786.955078 
	C885.934448,787.313293 884.442932,787.502869 882.517822,787.798035 
z"/>
<path fill="var(--logo-ink)" opacity="1.000000" stroke="none" 
	d="
M941.090698,773.443359 
	C947.138733,753.912598 964.366516,745.089417 982.176331,752.034546 
	C995.587524,757.264221 1003.151917,772.107544 1000.620544,788.226379 
	C997.723389,806.674316 983.416809,817.637878 965.656006,815.020691 
	C949.227966,812.599792 937.806580,795.807373 940.341125,777.786987 
	C940.526367,776.469971 940.785339,775.163269 941.090698,773.443359 
z"/>
<path fill="var(--logo-ink)" opacity="1.000000" stroke="none" 
	d="
M1513.134766,640.104980 
	C1514.876587,635.569031 1516.493408,631.399475 1518.739868,625.605774 
	C1524.362793,639.838989 1529.457031,652.734192 1534.798950,666.256104 
	C1523.921143,666.256104 1513.814575,666.256104 1502.997681,666.256104 
	C1506.452148,657.359558 1509.730957,648.915466 1513.134766,640.104980 
z"/>
<path fill="var(--logo-ink)" opacity="1.000000" stroke="none" 
	d="
M1413.705322,659.021240 
	C1403.831421,659.926941 1394.322266,660.691406 1384.475342,661.483032 
	C1384.475342,648.016052 1384.475342,635.789551 1384.475342,623.381531 
	C1392.684326,623.381531 1400.823364,622.703491 1408.797607,623.560242 
	C1417.922119,624.540527 1422.886597,629.986694 1424.134766,638.167786 
	C1425.614990,647.869507 1422.492920,654.294678 1413.705322,659.021240 
z"/>
<path fill="var(--logo-ink)" opacity="1.000000" stroke="none" 
	d="
M1316.257568,629.358521 
	C1316.681763,628.410034 1316.975464,627.817749 1317.779785,626.195496 
	C1323.166870,639.834656 1328.261963,652.734680 1333.580811,666.201233 
	C1322.967407,666.201233 1312.817993,666.201233 1301.970947,666.201233 
	C1306.711304,653.983093 1311.419067,641.848877 1316.257568,629.358521 
z"/>
<path fill="var(--logo-ink)" opacity="1.000000" stroke="none" 
	d="
M1353.281006,790.051025 
	C1353.703369,791.354187 1353.979370,792.269104 1354.378540,793.592773 
	C1343.676880,793.592773 1333.377930,793.592773 1322.244141,793.592773 
	C1327.609863,779.985229 1332.794678,766.836426 1338.359375,752.724548 
	C1343.561646,765.730347 1348.348145,777.696533 1353.281006,790.051025 
z"/>
</svg>